<?xml version="1.0" encoding="utf-8"?>
<svg version="1.0" id="Capa_1" xmlns="http://www.w3.org/2000/svg" xmlns:xlink="http://www.w3.org/1999/xlink" x="0px" y="0px"
	 width="64px" height="64px" viewBox="0 0 64 64" enable-background="new 0 0 64 64" xml:space="preserve">
<path fill-rule="evenodd" clip-rule="evenodd" d="M37.01,49.982l-1.538-3.076h-0.164c-1.08,1.34-2.181,2.256-3.302,2.748
	c-1.121,0.492-2.57,0.738-4.347,0.738c-2.188,0-3.91-0.656-5.168-1.969c-1.258-1.312-1.887-3.158-1.887-5.537
	c0-2.474,0.861-4.316,2.584-5.527c1.723-1.209,4.218-1.89,7.485-2.04l3.876-0.123v-0.328c0-1.914-0.943-2.871-2.83-2.871
	c-1.695,0-3.848,0.574-6.46,1.722l-2.317-5.291c2.707-1.394,6.125-2.092,10.254-2.092c2.98,0,5.287,0.739,6.921,2.215
	c1.634,1.477,2.451,3.541,2.451,6.194v15.237H37.01z M31.063,44.732c0.971,0,1.801-0.308,2.492-0.923
	c0.69-0.615,1.035-1.415,1.035-2.399v-1.805l-1.845,0.082c-2.639,0.096-3.958,1.066-3.958,2.912
	C28.787,44.021,29.545,44.732,31.063,44.732z"/>
<path d="M32,1C14.879,1,1,14.879,1,32c0,17.121,13.879,31,31,31c17.121,0,31-13.879,31-31C63,14.879,49.121,1,32,1z M32,56
	C18.745,56,8,45.255,8,32C8,18.745,18.745,8,32,8s24,10.745,24,24C56,45.255,45.255,56,32,56z"/>
<rect x="20.091" y="13.069" transform="matrix(0.766 -0.6428 0.6428 0.766 -7.2931 19.0997)" width="5" height="13"/>
<rect x="40.091" y="14.069" transform="matrix(0.766 0.6428 -0.6428 0.766 23.1858 -22.5651)" width="5" height="13"/>
<rect x="30.091" y="10.069" width="5" height="13"/>
</svg>
