<svg width="61px" height="60px" viewBox="0 0 61 60" version="1.1" xmlns="http://www.w3.org/2000/svg" xmlns:xlink="http://www.w3.org/1999/xlink">
    <!-- Generator: Sketch 57.1 (83088) - https://sketch.com -->
    <g id="&gt;=1280-DESKTOP-1366" stroke="none" stroke-width="1" fill="none" fill-rule="evenodd">
        <g id="PORTADA-CON-DESTACADO-1366" transform="translate(-757.000000, -1042.000000)">
            <g id="1000-USOS" transform="translate(727.000000, 694.000000)">
                <g id="MIS-ACCESOS-DIRECTOS" transform="translate(0.000000, 329.000000)">
                    <g id="NOMBRE-MODULO" transform="translate(25.000000, 13.000000)">
                        <g id="APPS-Copy">
                            <g id="APPS">
                                <ellipse id="Oval" fill="#000000" cx="35.5" cy="36" rx="30.5" ry="30"></ellipse>
                                <ellipse id="Oval-Copy" fill="#FFFFFF" cx="35.5" cy="36" rx="26.5" ry="26"></ellipse>
                                <polygon id="Fill-2" fill="#000000" points="19 28 27 28 27 20 19 20"></polygon>
                                <polygon id="Fill-3" fill="#000000" points="32 28 40 28 40 20 32 20"></polygon>
                                <polygon id="Fill-4" fill="#000000" points="44 28 52 28 52 20 44 20"></polygon>
                                <polygon id="Fill-5" fill="#000000" points="19 40 27 40 27 32 19 32"></polygon>
                                <polygon id="Fill-6" fill="#000000" points="32 40 40 40 40 32 32 32"></polygon>
                                <polygon id="Fill-7" fill="#000000" points="44 40 52 40 52 32 44 32"></polygon>
                                <polygon id="Fill-8" fill="#000000" points="19 52 27 52 27 44 19 44"></polygon>
                                <polygon id="Fill-9" fill="#000000" points="32 52 40 52 40 44 32 44"></polygon>
                                <polygon id="Fill-10" fill="#000000" points="44 52 52 52 52 44 44 44"></polygon>
                            </g>
                        </g>
                    </g>
                </g>
            </g>
        </g>
    </g>
</svg>