<svg xmlns="http://www.w3.org/2000/svg" width="64" height="64" viewBox="0 0 64 64">
    <path fill-rule="evenodd" d="M32.164 47.484H17.569l3.008-8.232c.103-.571.39-3.573.465-4.148.13-1.015.295-2.026.438-3.039.108-.772.218-1.554.34-2.324.22-1.409.54-2.81 1.061-4.139.25-.64.557-1.257.945-1.826 1.123-1.641 2.78-3.471 4.71-4.114.898-.299 1.843-.358 2.873-.4v-.036c0 .006-.106.011.028.016.118-.005-.028-.01-.028-.016v.03c1.03.044 2.308.094 3.244.405 1.929.642 3.768 2.472 4.89 4.113.388.568.79 1.183 1.04 1.823.52 1.33.889 2.726 1.11 4.135.12.77.254 1.542.362 2.314.143 1.013.32 2.007.45 3.022.074.575.369 3.613.47 4.184l3.015 8.232H32.164zm25.335 8.089c-.006-1.395.07-3.076-.447-4.415-.763-1.976-1.92-3.493-3.224-5.144-.343-.435-.665-.901-.897-1.405-.429-.929-.624-1.986-.803-2.987-.188-1.05-.297-2.114-.433-3.171-.24-1.868-.541-3.729-.803-5.594-.836-5.94-1.648-13.07-6.125-17.504-2.003-1.983-4.49-2.829-6.729-4.409a2.712 2.712 0 0 1-1.017-1.334c-.02-.056-.03-.084-.044-.128.599-.953.95-2.079.95-3.288 0-3.42-2.763-6.193-6.174-6.194h-.003c-3.412.001-6.177 2.774-6.177 6.194 0 1.21.351 2.335.95 3.288l-.045.128a2.71 2.71 0 0 1-1.016 1.334c-2.24 1.58-4.726 2.426-6.73 4.409-4.475 4.433-5.288 11.564-6.124 17.504-.263 1.865-.563 3.726-.803 5.594-.136 1.057-.245 2.12-.433 3.17-.18 1.002-.374 2.059-.803 2.988-.233.504-.554.97-.898 1.405-1.304 1.65-2.46 3.168-3.223 5.144-.518 1.339-.44 3.02-.447 4.415-.003.744.004 1.49.004 2.233h18.15c0 3.421 3.616 6.194 7.598 6.194 3.981 0 7.648-2.773 7.648-6.194h18.094c0-1.032.007-1.49.004-2.233z"/>
</svg>
