<?xml version="1.0" encoding="utf-8"?>
<!-- Generator: Adobe Illustrator 16.0.0, SVG Export Plug-In . SVG Version: 6.00 Build 0)  -->
<!DOCTYPE svg PUBLIC "-//W3C//DTD SVG 1.1//EN" "http://www.w3.org/Graphics/SVG/1.1/DTD/svg11.dtd">
<svg version="1.1" id="Capa_1" xmlns="http://www.w3.org/2000/svg" xmlns:xlink="http://www.w3.org/1999/xlink" x="0px" y="0px"
	 width="62px" height="57px" viewBox="0 0 62 57" enable-background="new 0 0 62 57" xml:space="preserve">
<path d="M55.834,16.424v-0.61c0-2.668-2.168-4.831-4.844-4.831h-3.164v0.61c0,1.067-0.867,1.932-1.938,1.932h-2.652
	c-1.068,0-1.938-0.865-1.938-1.932v-0.61H20.089v0.61c0,1.067-0.868,1.932-1.938,1.932H15.5c-1.07,0-1.938-0.865-1.938-1.932v-0.61
	h-2.549c-2.675,0-4.844,2.163-4.844,4.831v0.61H55.834z M55.834,22.933H6.17v23.085c0,2.668,2.168,4.83,4.844,4.83H50.99
	c2.676,0,4.844-2.162,4.844-4.83V22.933z M47.826,4.831h4.486c5.35,0,9.688,4.325,9.688,9.661V47.34c0,5.336-4.338,9.66-9.688,9.66
	H9.688C4.338,57,0,52.676,0,47.34V14.492c0-5.336,4.337-9.661,9.688-9.661h3.875V1.933C13.563,0.866,14.431,0,15.5,0h2.651
	c1.07,0,1.938,0.865,1.938,1.932v2.898h21.209V1.933C41.299,0.866,42.168,0,43.236,0h2.652c1.07,0,1.938,0.865,1.938,1.932V4.831z
	 M14.889,29.34h3.977c1.605,0,2.906,1.297,2.906,2.898v0.711c0,1.602-1.301,2.898-2.906,2.898h-3.977
	c-1.605,0-2.906-1.297-2.906-2.898v-0.711C11.982,30.637,13.284,29.34,14.889,29.34z M27.482,29.34h3.977
	c1.605,0,2.906,1.297,2.906,2.898v0.711c0,1.602-1.301,2.898-2.906,2.898h-3.977c-1.605,0-2.906-1.297-2.906-2.898v-0.711
	C24.576,30.637,25.877,29.34,27.482,29.34z M14.889,39.102h3.977c1.605,0,2.906,1.299,2.906,2.898v0.713
	c0,1.6-1.301,2.898-2.906,2.898h-3.977c-1.605,0-2.906-1.299-2.906-2.898V42C11.982,40.4,13.284,39.102,14.889,39.102z
	 M27.482,39.102h3.977c1.605,0,2.906,1.299,2.906,2.898v0.713c0,1.6-1.301,2.898-2.906,2.898h-3.977
	c-1.605,0-2.906-1.299-2.906-2.898V42C24.576,40.4,25.877,39.102,27.482,39.102z M40.076,29.34h3.977
	c1.605,0,2.906,1.297,2.906,2.898v0.711c0,1.602-1.301,2.898-2.906,2.898h-3.977c-1.605,0-2.906-1.297-2.906-2.898v-0.711
	C37.17,30.637,38.471,29.34,40.076,29.34z"/>
</svg>
