<?xml version="1.0" encoding="UTF-8"?>
<svg width="62px" height="57px" viewBox="0 0 62 57" version="1.1" xmlns="http://www.w3.org/2000/svg" xmlns:xlink="http://www.w3.org/1999/xlink">
    <!-- Generator: Sketch 57.1 (83088) - https://sketch.com -->
    <title>CALENDARIO-BOLD</title>
    <desc>Created with Sketch.</desc>
    <g id="&gt;=1280-DESKTOP-1366" stroke="none" stroke-width="1" fill-rule="evenodd">
        <g id="ICONS-64*64" transform="translate(-1691.000000, -329.000000)">
            <g id="CALENDARIO-BOLD" transform="translate(1690.000000, 324.000000)">
                <g id="CALENDARIO">
                    <path d="M56.8346719,20.8135593 C56.8346719,19.0350152 56.8346719,17.4248457 56.8346719,15.9830508 L48.8256579,15.9830508 L48.8256579,16.5932203 C48.8256579,17.304638 48.8256579,17.9487058 48.8256579,18.5254237 L42.2993421,18.5254237 C42.2993421,17.9487058 42.2993421,17.304638 42.2993421,16.5932203 L42.2993421,15.9830508 L21.0888158,15.9830508 L21.0888158,16.5932203 C21.0888158,17.304638 21.0888158,17.9487058 21.0888158,18.5254237 L14.5625,18.5254237 C14.5625,17.9487058 14.5625,17.304638 14.5625,16.5932203 L14.5625,15.9830508 L7.16940789,15.9830508 C7.16940789,17.4248457 7.16940789,19.0350152 7.16940789,20.8135593 L7.16940789,21.4237288 L56.8346719,21.4237288 L56.8346719,20.8135593 Z M56.8346719,27.9322034 L7.16940789,27.9322034 L7.16940789,51.0169492 C7.16940789,52.7954933 7.16940789,54.4056628 7.16940789,55.8474576 L56.8346719,55.8474576 C56.8346719,54.4056628 56.8346719,52.7954933 56.8346719,51.0169492 L56.8346719,27.9322034 Z M48.8256579,9.83050847 L63,9.83050847 C63,12.7140982 63,15.9344372 63,19.4915254 L63,52.3389831 C63,55.8960713 63,59.1164103 63,62 L1,62 C1,59.1164103 1,55.8960713 1,52.3389831 L1,19.4915254 C1,15.9344372 1,12.7140982 1,9.83050847 L14.5625,9.83050847 L14.5625,6.93220339 C14.5625,6.22078575 14.5625,5.57671795 14.5625,5 L21.0888158,5 C21.0888158,5.57671795 21.0888158,6.22078575 21.0888158,6.93220339 L21.0888158,9.83050847 L42.2993421,9.83050847 L42.2993421,6.93220339 C42.2993421,6.22078575 42.2993421,5.57671795 42.2993421,5 L48.8256579,5 C48.8256579,5.57671795 48.8256579,6.22078575 48.8256579,6.93220339 L48.8256579,9.83050847 Z M12,32 L22,32 L22,39 L12,39 L12,32 Z M27,32 L37,32 L37,39 L27,39 L27,32 Z M42,32 L52,32 L52,39 L42,39 L42,32 Z M12,44 L22,44 L22,51 L12,51 L12,44 Z M27,44 L37,44 L37,51 L27,51 L27,44 Z M42,44 L52,44 L52,51 L42,51 L42,44 Z" id="Combined-Shape"></path>
                </g>
            </g>
        </g>
    </g>
</svg>