<?xml version="1.0" encoding="UTF-8" standalone="no"?>
<svg width="64px" height="64px" viewBox="0 0 64 64" version="1.1" xmlns="http://www.w3.org/2000/svg" xmlns:xlink="http://www.w3.org/1999/xlink">
    <defs></defs>
    <g id="ICONS-64*64" stroke="none" stroke-width="1" fill="none" fill-rule="evenodd" transform="translate(-234.000000, -242.000000)">
        <g id="LIVE-VIDEO" transform="translate(234.000000, 242.000000)" fill="">
            <path d="M17.0000035,23.9928903 C15.7236774,26.3788839 15,29.10493 15,32 C15,41.3888407 22.6111593,49 32,49 C41.3888407,49 49,41.3888407 49,32 C49,22.6111593 41.3888407,15 32,15 C29.10493,15 26.3788839,15.7236774 23.9928903,17.0000035 C20.1325347,17.0038407 17.0038407,20.1325347 17.0000035,23.9928903 Z M22.0794692,30.7332579 C22.6897364,30.9069926 23.3340067,31 24,31 C27.8659932,31 31,27.8659932 31,24 C31,23.3340067 30.9069926,22.6897364 30.7332579,22.0794692 C31.1481201,22.0270262 31.5709039,22 32,22 C37.5228475,22 42,26.4771525 42,32 C42,37.5228475 37.5228475,42 32,42 C26.4771525,42 22,37.5228475 22,32 C22,31.5709039 22.0270262,31.1481201 22.0794692,30.7332579 Z M32,64 C14.326888,64 0,49.673112 0,32 C0,14.326888 14.326888,0 32,0 C49.673112,0 64,14.326888 64,32 C64,49.673112 49.673112,64 32,64 Z M32,54 C44.1502645,54 54,44.1502645 54,32 C54,19.8497355 44.1502645,10 32,10 C19.8497355,10 10,19.8497355 10,32 C10,44.1502645 19.8497355,54 32,54 Z M32,52 C20.954305,52 12,43.045695 12,32 C12,20.954305 20.954305,12 32,12 C43.045695,12 52,20.954305 52,32 C52,43.045695 43.045695,52 32,52 Z" id="Combined-Shape"></path>
        </g>
    </g>
</svg>