<svg xmlns="http://www.w3.org/2000/svg" width="65" height="65" viewBox="0 0 65 65">
    <g fill="#000" fill-rule="evenodd">
        <path d="M51.63 17.957l3.513 2.028a.664.664 0 1 1-.663 1.15l-3.89-2.246a.664.664 0 0 1-.294-.798v-2.572a.667.667 0 0 1 1.334 0v2.438zm-.667 10.71c-5.891 0-10.667-4.776-10.667-10.667S45.072 7.333 50.963 7.333 61.63 12.11 61.63 18s-4.776 10.667-10.667 10.667zm-.002-2.188a8.48 8.48 0 1 0 0-16.96 8.48 8.48 0 0 0 0 16.96zm.002-14.294a.667.667 0 1 1 0-1.333.667.667 0 0 1 0 1.333zm0 12.963a.667.667 0 1 1 0-1.333.667.667 0 0 1 0 1.333zM44.481 19a.667.667 0 1 1 0-1.333.667.667 0 0 1 0 1.333zm12.963 0a.667.667 0 1 1 0-1.333.667.667 0 0 1 0 1.333zM41.904 49.952H19.19a6.77 6.77 0 0 0 .145-2.824h22.425a6.81 6.81 0 0 0 .145 2.824zm13.089 0a6.77 6.77 0 0 0 .145-2.824h3.886a1 1 0 0 0 .973-1.23l-.449-1.892a1 1 0 0 0-.45-.62l-1.687-1.038a1 1 0 0 1-.403-.474l-1.607-3.943a1 1 0 0 0-.609-.571l-9.696-3.244a2 2 0 0 1-.619-.338L33.69 25.1a2 2 0 0 0-1.253-.441H17.158a2 2 0 0 0-1.342.517l-10.4 9.412a2 2 0 0 0-.658 1.446l-.09 4.813a.427.427 0 0 1-.427.419.419.419 0 0 0-.419.419V44.6a1 1 0 0 0 .496.864l1.77 1.032A6.772 6.772 0 0 0 5.87 48.2c0 .606.08 1.193.23 1.752h-.63a2 2 0 0 1-1.067-.308l-2.471-1.559A2 2 0 0 1 1 46.394v-3.322c0-.269.218-.486.487-.486a.487.487 0 0 0 .486-.487v-6.328a4 4 0 0 1 1.322-2.972l11.16-10.058a4 4 0 0 1 2.679-1.028h16.468a4 4 0 0 1 2.574.939l10.277 8.644a2 2 0 0 0 .637.36l9.483 3.263a2 2 0 0 1 1.208 1.155l1.422 3.587a2 2 0 0 0 .572.794l1.94 1.631a2 2 0 0 1 .695 1.269l.573 4.336A2 2 0 0 1 61 49.952h-6.007zM12.645 54a5.803 5.803 0 0 1-5.806-5.8c0-3.203 2.6-5.8 5.806-5.8a5.803 5.803 0 0 1 5.806 5.8c0 3.203-2.6 5.8-5.806 5.8zm0-2.486a3.316 3.316 0 0 0 3.318-3.314 3.316 3.316 0 0 0-3.318-3.314A3.316 3.316 0 0 0 9.327 48.2a3.316 3.316 0 0 0 3.318 3.314zM48.448 54a5.803 5.803 0 0 1-5.806-5.8c0-3.203 2.6-5.8 5.806-5.8a5.803 5.803 0 0 1 5.806 5.8c0 3.203-2.6 5.8-5.806 5.8zm0-2.486a3.316 3.316 0 0 0 3.318-3.314 3.316 3.316 0 0 0-3.318-3.314 3.316 3.316 0 0 0-3.317 3.314 3.316 3.316 0 0 0 3.317 3.314zM26.16 31.668v1.899a1 1 0 0 1-1 1H10.95a1 1 0 0 1-.573-1.82l6.816-4.767a1 1 0 0 1 .573-.18h14.877a1 1 0 0 1 .536.156l7.499 4.767a1 1 0 0 1-.537 1.844H28.094a.967.967 0 0 1 0-1.934h6.857a.78.78 0 0 0 .401-1.45l-2.182-1.307a1 1 0 0 0-.514-.143H17.783a1 1 0 0 0-.6.2l-1.668 1.25a.805.805 0 0 0 .483 1.45h7.26a.967.967 0 0 0 .966-.966.968.968 0 0 1 1.935.001z"/>
    </g>
</svg>
