<?xml version="1.0" encoding="UTF-8"?>
<svg width="58px" height="58px" viewBox="0 0 58 58" version="1.1" xmlns="http://www.w3.org/2000/svg" xmlns:xlink="http://www.w3.org/1999/xlink">
    <!-- Generator: Sketch 57.1 (83088) - https://sketch.com -->
    <title>CHAT</title>
    <desc>Created with Sketch.</desc>
    <g id="&gt;=1280-DESKTOP-1366" stroke="none" stroke-width="1" fill-rule="evenodd">
        <g id="ICONS-64*64" transform="translate(-1525.000000, -331.000000)" >
            <g id="CHAT" transform="translate(1522.000000, 328.000000)">
                <path d="M32,3 C47.9803106,3 61,14.5208751 61,28.817963 C61,43.1150509 47.9803106,54.6359259 32,54.6359259 C29.9172599,54.6359259 27.8371068,54.4207306 25.7465932,54.0054302 L14.4746294,61 L14.6262945,49.4748433 C7.38652894,44.6440045 3,37.0683809 3,28.817963 C3,14.5208751 16.0196894,3 32,3 Z M31.9373437,9.38421159 C19.7566175,9.38421159 9.93734372,18.1328134 9.93734372,28.8485834 C9.93734372,35.233308 13.453152,41.1099324 19.272513,44.7486279 L19.9731615,45.1867252 L19.8921625,51.3842116 L25.9892307,47.5748086 L26.5938692,47.7087376 C28.3919574,48.1070188 30.1675845,48.3129553 31.9373437,48.3129553 C44.11807,48.3129553 53.9373437,39.5643534 53.9373437,28.8485834 C53.9373437,18.1328134 44.11807,9.38421159 31.9373437,9.38421159 Z M41.1609608,33.021008 L41.1609608,40.021008 L21.9868568,40.021008 L21.9868568,33.021008 L41.1609608,33.021008 Z M44.9957816,21.1876747 L44.9957816,28.1876747 L18.152036,28.1876747 L18.152036,21.1876747 L44.9957816,21.1876747 Z" id="Combined-Shape"></path>
            </g>
        </g>
    </g>
</svg>