<svg xmlns="http://www.w3.org/2000/svg" width="64" height="64" viewBox="0 0 64 64">
    <path fill="#000" fill-rule="evenodd" d="M12.846 64.493l.163-12.718C5.215 46.445.493 38.085.493 28.981.493 13.205 14.509.493 31.713.493s31.22 12.712 31.22 28.488-14.016 28.49-31.22 28.49c-2.242 0-4.482-.238-6.732-.697l-12.135 7.719zm3.813-6.84l7.62-4.847.756.17c2.247.507 4.466.769 6.678.769 15.223 0 27.495-11.13 27.495-24.764 0-13.633-12.272-24.763-27.495-24.763S4.218 15.348 4.218 28.98c0 8.123 4.394 15.6 11.667 20.23l.875.556-.1 7.885zm29.045-34.884c1.14 0 2.064 1.027 2.064 2.293 0 1.266-.925 2.294-2.064 2.294h-28.9c-1.139 0-2.064-1.028-2.064-2.294s.925-2.293 2.065-2.293h28.899zm-4.129 12.385c1.14 0 2.064 1.028 2.064 2.294s-.924 2.294-2.064 2.294H20.933c-1.14 0-2.064-1.028-2.064-2.294s.925-2.294 2.064-2.294h20.642z"/>
</svg>
