<svg xmlns="http://www.w3.org/2000/svg" width="36" height="36" viewBox="0 0 36 36">
    <path fill="#000" fill-rule="evenodd" d="M10.732 5.959a13.98 13.98 0 0 1 3.893-1.614V0h6.75v4.345c1.39.343 2.7.892 3.893 1.614l3.073-3.073 4.773 4.773-3.073 3.073a13.98 13.98 0 0 1 1.614 3.893H36v6.75h-4.345a13.98 13.98 0 0 1-1.614 3.893l3.073 3.073-4.773 4.773-3.073-3.073a13.98 13.98 0 0 1-3.893 1.614V36h-6.75v-4.345a13.98 13.98 0 0 1-3.893-1.614l-3.073 3.073-4.773-4.773 3.073-3.073a13.98 13.98 0 0 1-1.614-3.893H0v-6.75h4.345c.343-1.39.892-2.7 1.614-3.893L2.886 7.659l4.773-4.773 3.073 3.073zM18 26.438a8.437 8.437 0 1 0 0-16.875 8.437 8.437 0 0 0 0 16.874z"/>
</svg>
