<svg width="64px" height="64px" viewBox="0 0 64 64" version="1.1" xmlns="http://www.w3.org/2000/svg" xmlns:xlink="http://www.w3.org/1999/xlink">
   <path d="M32,0 C49.673112,0 64,14.326888 64,32 C64,49.673112 49.673112,64 32,64 C14.326888,64 0,49.673112 0,32 C0,14.326888 14.326888,0 32,0 Z M32,3 C15.9837423,3 3,15.9837423 3,32 C3,48.0162577 15.9837423,61 32,61 C48.0162577,61 61,48.0162577 61,32 C61,15.9837423 48.0162577,3 32,3 Z M32,53 C33.1045695,53 34,53.8954305 34,55 C34,56.1045695 33.1045695,57 32,57 C30.8954305,57 30,56.1045695 30,55 C30,53.8954305 30.8954305,53 32,53 Z M32,19 C33.1045695,19 34,19.8954305 34,21 L34,32.515 L47.8612159,40.5179492 C48.8178012,41.0702339 49.1455515,42.2934148 48.5932667,43.25 C48.040982,44.2065852 46.8178012,44.5343356 45.8612159,43.9820508 L31.1387841,35.4820508 C30.4926939,35.1090305 30.1334675,34.429959 30.1385023,33.7336884 C30.0492649,33.5066677 30,33.2590871 30,33 L30,21 C30,19.8954305 30.8954305,19 32,19 Z M9,31 C10.1045695,31 11,31.8954305 11,33 C11,34.1045695 10.1045695,35 9,35 C7.8954305,35 7,34.1045695 7,33 C7,31.8954305 7.8954305,31 9,31 Z M55,31 C56.1045695,31 57,31.8954305 57,33 C57,34.1045695 56.1045695,35 55,35 C53.8954305,35 53,34.1045695 53,33 C53,31.8954305 53.8954305,31 55,31 Z M32,7 C33.1045695,7 34,7.8954305 34,9 C34,10.1045695 33.1045695,11 32,11 C30.8954305,11 30,10.1045695 30,9 C30,7.8954305 30.8954305,7 32,7 Z"></path>
</svg>