<svg xmlns="http://www.w3.org/2000/svg" xmlns:xlink="http://www.w3.org/1999/xlink" width="64" height="64" viewBox="0 0 64 64">
    <defs>
        <path id="a" d="M64.25.125v52.878h-64V.125h64z"/>
    </defs>
        <path fill="#000" d="M18.25 35.5a3 3 0 1 1-6 0 3 3 0 0 1 6 0"/>
        <g transform="translate(0 5)">
            <mask id="b" fill="#fff">
                <use xlink:href="#a"/>
            </mask>
            <path fill="#000" d="M49.676 45.562l-34.858.002A22.906 22.906 0 0 1 9.25 30.56c0-12.7 10.296-22.996 22.996-22.996 12.701 0 22.996 10.296 22.996 22.996a22.906 22.906 0 0 1-5.566 15.002M32.25.125c-17.673 0-32 14.327-32 32a31.874 31.874 0 0 0 7.748 20.878L56.504 53a31.876 31.876 0 0 0 7.746-20.875c0-17.673-14.327-32-32-32" mask="url(#b)"/>
        </g>
        <path fill="#000" d="M52.25 35.5a3 3 0 1 1-6 0 3 3 0 0 1 6 0M23.25 23.5a3 3 0 1 1-6 0 3 3 0 0 1 6 0M35 19a3 3 0 1 1-6 0 3 3 0 0 1 6 0M47.25 23.5a3 3 0 1 1-6 0 3 3 0 0 1 6 0M24 51h13.375l3.875-22.875z"/>
</svg>
