<svg xmlns="http://www.w3.org/2000/svg" width="20" height="19" viewBox="0 0 20 19">
    <path fill="#000" fill-rule="evenodd" d="M19.063 5.875v-.813a2 2 0 0 0-2-2h-1.438v1.25a.625.625 0 1 1-1.25 0v-1.25h-8.75v1.25a.625.625 0 1 1-1.25 0v-1.25H2.937a2 2 0 0 0-2 2v.813h18.125zm0 .938H.938v9.25a2 2 0 0 0 2 2h14.124a2 2 0 0 0 2-2v-9.25zm-3.438-4.688H17a3 3 0 0 1 3 3V16a3 3 0 0 1-3 3H3a3 3 0 0 1-3-3V5.125a3 3 0 0 1 3-3h1.375v-.938a.625.625 0 1 1 1.25 0v.938h8.75v-.938a.625.625 0 1 1 1.25 0v.938zM3.812 9h.5a1 1 0 0 1 1 1v.5a1 1 0 0 1-1 1h-.5a1 1 0 0 1-1-1V10a1 1 0 0 1 1-1zm4.063 0h.5a1 1 0 0 1 1 1v.5a1 1 0 0 1-1 1h-.5a1 1 0 0 1-1-1V10a1 1 0 0 1 1-1zm4.063 0h.5a1 1 0 0 1 1 1v.5a1 1 0 0 1-1 1h-.5a1 1 0 0 1-1-1V10a1 1 0 0 1 1-1zM16 9h.5a1 1 0 0 1 1 1v.5a1 1 0 0 1-1 1H16a1 1 0 0 1-1-1V10a1 1 0 0 1 1-1zM3.812 13.375h.5a1 1 0 0 1 1 1v.5a1 1 0 0 1-1 1h-.5a1 1 0 0 1-1-1v-.5a1 1 0 0 1 1-1zm4.063 0h.5a1 1 0 0 1 1 1v.5a1 1 0 0 1-1 1h-.5a1 1 0 0 1-1-1v-.5a1 1 0 0 1 1-1zm4.063 0h.5a1 1 0 0 1 1 1v.5a1 1 0 0 1-1 1h-.5a1 1 0 0 1-1-1v-.5a1 1 0 0 1 1-1zm4.062 0h.5a1 1 0 0 1 1 1v.5a1 1 0 0 1-1 1H16a1 1 0 0 1-1-1v-.5a1 1 0 0 1 1-1z"/>
</svg>
