<svg xmlns="http://www.w3.org/2000/svg" width="64" height="64" viewBox="0 0 64 64">
    <g fill="#000" fill-rule="evenodd">
        <path d="M7.021 27.618c.712.813 1.605 1.56 2.707 2.223a24.081 24.081 0 0 0-.585 5.292c0 13.255 10.745 24 24 24s24-10.745 24-24-10.745-24-24-24A23.893 23.893 0 0 0 21.72 14.02a38.121 38.121 0 0 0-1.29-2.922A26.882 26.882 0 0 1 33 8c14.912 0 27 12.088 27 27S47.912 62 33 62 6 49.912 6 35c0-2.56.356-5.035 1.021-7.382zm17.515 7.915a3 3 0 1 1 0-6 3 3 0 0 1 0 6zm16.607 0a3 3 0 1 1 0-6 3 3 0 0 1 0 6z"/>
        <path d="M18.089 42h29.006c-1.85 5.043-5.125 8.5-14.334 8.5-8.398 0-12.805-3.457-14.672-8.5zM38.408 25.65l8.837 5.102c-1.386 1.214-2.844 1.822-5.877.071-2.766-1.597-3.423-3.426-2.96-5.173zM26.745 25.65l-8.837 5.102c1.386 1.214 2.844 1.822 5.877.071 2.766-1.597 3.423-3.426 2.96-5.173zM14 1s18 22 4 29c-3 1-7.583.239-8 0-14-8 4-29 4-29zm.183 6S2 23 11.639 26.168c.038.013 3.44.55 5.087 0C25 23 14.183 7 14.183 7z"/>
    </g>
</svg>
