<svg xmlns="http://www.w3.org/2000/svg" width="64" height="64" viewBox="0 0 64 64">
    <path fill="#000" fill-rule="evenodd" d="M11 0h40a3 3 0 0 1 3 3v58a3 3 0 0 1-3 3H11a3 3 0 0 1-3-3V3a3 3 0 0 1 3-3zm2 3a1 1 0 0 0-1 1v56a1 1 0 0 0 1 1h37a1 1 0 0 0 1-1V4a1 1 0 0 0-1-1H13zm5.5 11h15a1.5 1.5 0 0 1 0 3h-15a1.5 1.5 0 0 1 0-3zm0 7h27a1.5 1.5 0 0 1 0 3h-27a1.5 1.5 0 0 1 0-3zm0 7h27a1.5 1.5 0 0 1 0 3h-27a1.5 1.5 0 0 1 0-3zm0 7h27a1.5 1.5 0 0 1 0 3h-27a1.5 1.5 0 0 1 0-3zm0 7h27a1.5 1.5 0 0 1 0 3h-27a1.5 1.5 0 0 1 0-3zm0 7h27a1.5 1.5 0 0 1 0 3h-27a1.5 1.5 0 0 1 0-3z"/>
</svg>
