<svg xmlns="http://www.w3.org/2000/svg" width="64" height="64" viewBox="0 0 64 64">
    <path fill="#000" fill-rule="evenodd" d="M42.518 35.009L54.18 54.975A5.998 5.998 0 0 1 48.996 64H15.003a6.002 6.002 0 0 1-5.184-9.025L21.48 35.01a2 2 0 0 0 0-2.018L9.819 13.025A6.002 6.002 0 0 1 15.004 4h33.992a5.998 5.998 0 0 1 5.185 9.025L42.517 32.99a2 2 0 0 0 0 2.018zm-7.525 1.168a4 4 0 0 1 0-4.354l13.16-20.279a1 1 0 0 0-.84-1.544h-30.07a1 1 0 0 0-.86 1.513L28.61 31.946a4 4 0 0 1 0 4.108L16.384 56.487A1 1 0 0 0 17.243 58h30.07a1.001 1.001 0 0 0 .84-1.544l-13.16-20.279zm-3.36 5.537l7.671 11.572H23.962l7.671-11.572z"/>
</svg>
