<svg xmlns="http://www.w3.org/2000/svg" width="64" height="64" viewBox="0 0 64 64">
    <path fill="#000" fill-rule="nonzero" d="M13.006 24.558a6.503 6.503 0 0 1-6.506-6.5 6.5 6.5 0 1 1 13 0c0 3.59-2.908 6.5-6.494 6.5zm4.498 2.063c1.105 0 1.996.955 1.996 2.118v30.97c0 1.167-.895 2.112-1.996 2.112h-9c-1.102 0-2.004-.94-2.004-2.112v-30.97c0-1.167.9-2.118 2.003-2.118h9.001zm38.524 8.99c.01.083.016.175.021.298.014.33.02.95.016 1.956v21.843c0 1.172-.882 2.112-1.966 2.112h-8.835c-1.089 0-1.967-.94-1.967-2.112v-17.48c0-3.773-.466-4.63-3.159-4.63-1.908 0-3.294 1.635-3.319 3.2v18.91c0 1.167-.874 2.112-1.959 2.112h-8.835c-1.085 0-1.959-.945-1.959-2.112v-30.97c0-1.162.87-2.117 1.96-2.117h8.834c1.018 0 1.846.836 1.948 1.896 2.065-1.464 4.595-2.353 7.456-2.353 6.533 0 10.453 4.135 11.723 9.236.03.123.031.135.04.211z"/>
</svg>
