<svg xmlns="http://www.w3.org/2000/svg" width="36" height="36" viewBox="0 0 36 36">
    <path fill-rule="evenodd" d="M9.563 13.496A9.52 9.52 0 0 0 8.437 18 9.563 9.563 0 1 0 18 8.437a9.52 9.52 0 0 0-4.504 1.126 3.938 3.938 0 0 0-3.933 3.933zm2.857 3.791a3.94 3.94 0 0 0 4.867-4.867 5.625 5.625 0 1 1-4.868 4.868zM18 36C8.059 36 0 27.941 0 18S8.059 0 18 0s18 8.059 18 18-8.059 18-18 18zm0-5.625c6.835 0 12.375-5.54 12.375-12.375S24.835 5.625 18 5.625 5.625 11.165 5.625 18 11.165 30.375 18 30.375zm0-1.125c-6.213 0-11.25-5.037-11.25-11.25S11.787 6.75 18 6.75 29.25 11.787 29.25 18 24.213 29.25 18 29.25z"/>
</svg>
