<svg xmlns="http://www.w3.org/2000/svg" width="64" height="64" viewBox="0 0 64 64">
    <defs>
        <linearGradient id="a" x1="18.47%" y1="21.756%" y2="100%">
            <stop offset="0%" stop-opacity=".184"/>
            <stop offset="100%"/>
        </linearGradient>
    </defs>
    <path fill="url(#a)" fill-rule="evenodd" d="M8.82 54.061l6.062-5.087A24.031 24.031 0 0 0 30 56.021v7.918c-8.32-.514-15.78-4.206-21.18-9.878zm-2.573-3.063A31.835 31.835 0 0 1 .061 34h7.91a23.975 23.975 0 0 0 4.338 11.912l-6.062 5.086zM55.18 9.938l-6.062 5.088A24.031 24.031 0 0 0 34 7.97V.061c8.32.514 15.78 4.206 21.18 9.878zm2.573 3.064A31.835 31.835 0 0 1 63.939 30H56.02a23.975 23.975 0 0 0-4.332-11.91l6.064-5.088zm-2.573 41.06c-5.4 5.671-12.86 9.363-21.18 9.877V56.02a24.031 24.031 0 0 0 15.113-7.05l6.067 5.091zm2.573-3.064l-6.068-5.09A23.975 23.975 0 0 0 56.02 34h7.919a31.835 31.835 0 0 1-6.186 16.998zM8.82 9.938C14.22 4.268 21.68.576 30 .062v7.91a24.031 24.031 0 0 0-15.122 7.05L8.82 9.94zm-2.573 3.064l6.058 5.083A23.975 23.975 0 0 0 7.97 30H.061a31.835 31.835 0 0 1 6.186-16.998z"/>
</svg>
