<?xml version="1.0" encoding="UTF-8"?>
<svg width="70px" height="65px" viewBox="0 0 70 65" version="1.1" xmlns="http://www.w3.org/2000/svg" xmlns:xlink="http://www.w3.org/1999/xlink">
    <!-- Generator: Sketch 51.3 (57544) - http://www.bohemiancoding.com/sketch -->
    <title>DIR-NOTA-PRENSA-BG</title>
    <desc>Created with Sketch.</desc>
    <defs></defs>
    <g id="&gt;=1280-DESKTOP-1366" stroke="none" stroke-width="1" fill="none" fill-rule="evenodd">
        <g id="Artboard" transform="translate(-15.000000, -149.000000)" fill-rule="nonzero">
            <g id="DIR-NOTA-PRENSA-BG" transform="translate(14.000000, 143.000000)">
                <path d="M68.7707341,15.8936042 L61.2760234,15.8936042 L61.2760234,8.85863513 C61.2760234,7.69410623 60.3337478,6.75 59.171477,6.75 L3.22954642,6.75 C2.06727558,6.75 1.125,7.69410623 1.125,8.85863513 L1.125,63.957271 C1.125,67.7716514 4.22233112,70.875 8.02931529,70.875 L63.9706846,70.875 C67.7776688,70.875 70.8749999,67.7716514 70.8749999,63.957271 L70.8749999,18.0022393 C70.8752805,16.8377105 69.933005,15.8936042 68.7707341,15.8936042 Z" id="Combined-Shape" fill="#FFFFFF"></path>
                <path d="M68.7707341,15.8936042 L61.2760234,15.8936042 L61.2760234,8.85863513 C61.2760234,7.69410623 60.3337478,6.75 59.171477,6.75 L3.22954642,6.75 C2.06727558,6.75 1.125,7.69410623 1.125,8.85863513 L1.125,63.957271 C1.125,67.7716514 4.22233112,70.875 8.02931529,70.875 L63.9706846,70.875 C67.7776688,70.875 70.8749999,67.7716514 70.8749999,63.957271 L70.8749999,18.0022393 C70.8752805,16.8377105 69.933005,15.8936042 68.7707341,15.8936042 Z M4.33409284,9.96727026 L57.7680484,9.96727026 L57.7680484,17.1673763 L57.7680484,64.2033112 C57.7680484,65.1834304 57.9697724,66.1177953 58.3340928,66.9672703 L7.11794162,66.9672703 C5.5829845,66.9672703 4.33409284,65.7273016 4.33409284,64.2033112 L4.33409284,9.96727026 Z M63.9709652,66.6577297 C62.4851555,66.6577297 61.2760234,65.4462486 61.2760234,63.957271 L61.2760234,20.1108745 L66.6661877,20.1108745 L66.6661877,63.957271 C66.6661877,65.4462486 65.4570556,66.6577297 63.9709652,66.6577297 Z M10.1425966,33 C8.95931194,33 8,32.0718629 8,30.9270315 L8,17.0729685 C8,15.9281371 8.95931194,15 10.1425966,15 L52.8574034,15 C54.0406881,15 55,15.9281371 55,17.0729685 L55,30.9270315 C55,32.0718629 54.0406881,33 52.8574034,33 L10.1425966,33 Z M11,18 L11,30 L52,30 L52,18 L11,18 Z M10.0545898,62 C8.91990835,62 8,61.0801489 8,59.9455381 L8,42.0544619 C8,40.9198511 8.91990835,40 10.0545898,40 L27.9454102,40 C29.0800916,40 30,40.9198511 30,42.0544619 L30,59.9455381 C30,61.0801489 29.0800916,62 27.9454102,62 L10.0545898,62 Z M11,43 L11,59 L27,59 L27,43 L11,43 Z M52.8868966,39.9575893 C54.0527615,39.9575893 54.9979508,40.6291893 54.9979508,41.4575893 C54.9979508,42.2859893 54.0527615,42.9575893 52.8868966,42.9575893 L35.1090051,42.9575893 C33.9431402,42.9575893 32.9979508,42.2859893 32.9979508,41.4575893 C32.9979508,40.6291893 33.9431402,39.9575893 35.1090051,39.9575893 L52.8868966,39.9575893 Z M52.8868966,57.1339286 C54.0527615,57.1339286 54.9979508,57.8055286 54.9979508,58.6339286 C54.9979508,59.4623286 54.0527615,60.1339286 52.8868966,60.1339286 L35.1090051,60.1339286 C33.9431402,60.1339286 32.9979508,59.4623286 32.9979508,58.6339286 C32.9979508,57.8055286 33.9431402,57.1339286 35.1090051,57.1339286 L52.8868966,57.1339286 Z M52.8868966,47.9732143 C54.0527615,47.9732143 54.9979508,48.6448143 54.9979508,49.4732143 C54.9979508,50.3016143 54.0527615,50.9732143 52.8868966,50.9732143 L35.1090051,50.9732143 C33.9431402,50.9732143 32.9979508,50.3016143 32.9979508,49.4732143 C32.9979508,48.6448143 33.9431402,47.9732143 35.1090051,47.9732143 L52.8868966,47.9732143 Z" id="Combined-Shape-Copy" fill="#000000"></path>
            </g>
        </g>
    </g>
</svg>