<svg xmlns="http://www.w3.org/2000/svg" width="40" height="37" viewBox="0 0 40 37">
    <path fill-rule="evenodd" d="M38.125 10.75V7.125a2 2 0 0 0-2-2H31.25v2.5a1.25 1.25 0 0 1-2.5 0v-2.5h-17.5v2.5a1.25 1.25 0 0 1-2.5 0v-2.5H3.875a2 2 0 0 0-2 2v3.625h36.25zm0 1.875H1.875v20.5a2 2 0 0 0 2 2h32.25a2 2 0 0 0 2-2v-20.5zM31.25 3.25H37a3 3 0 0 1 3 3V34a3 3 0 0 1-3 3H3a3 3 0 0 1-3-3V6.25a3 3 0 0 1 3-3h5.75V1.375a1.25 1.25 0 1 1 2.5 0V3.25h17.5V1.375a1.25 1.25 0 0 1 2.5 0V3.25zM14.375 21.375a1.875 1.875 0 1 0 0-3.75 1.875 1.875 0 0 0 0 3.75zm11.25 0a1.875 1.875 0 1 1 0-3.75 1.875 1.875 0 0 1 0 3.75zM9.375 27c3.028-2.083 6.361-3.125 10-3.125 3.639 0 7.389 1.042 11.25 3.125v.275a1 1 0 0 1-1.419.908c-3.517-1.622-6.794-2.433-9.831-2.433-2.919 0-5.76.75-8.523 2.248a1 1 0 0 1-1.477-.88V27z"/>
</svg>
