
<svg width="50px" height="62px" viewBox="0 0 50 62" version="1.1" xmlns="http://www.w3.org/2000/svg" xmlns:xlink="http://www.w3.org/1999/xlink">
    <polygon id="Path-3" fill="#FFFFFF" points="10.9500225 11.5370937 27 3.40236079 31 3.40236079 38.2591585 18.5 43.0499775 31.5499347 43.0499775 35 40 37.1826172 38.2591585 41 37 43 37 55 47.0108238 55 47.0108238 60.9106445 20.8671875 60.9106445 20.8671875 55 31 55 30 41.9296875 25.7408415 42.5976392 22.2591585 41 10.2016602 13.5"></polygon>
    <path d="M33.5885146,5.83633269 L44.1636673,29.5885146 C45.7361084,33.1202752 44.1477662,37.2580482 40.6160056,38.8304893 L39.8890093,39.154608 L39.9148846,39.0127721 C39.7720326,39.8530997 39.4544534,40.6339169 39.0008411,41.3165298 L39,53 L46,53 C47.6568542,53 49,54.3431458 49,56 L49,60 C49,61.6568542 47.6568542,63 46,63 L22,63 C20.3431458,63 19,61.6568542 19,60 L19,56 C19,54.3431458 20.3431458,53 22,53 L29,53 L28.9996433,43.9645619 C25.625359,45.0822988 21.8877948,43.4795124 20.4114854,40.1636673 L9.83633269,16.4114854 C8.26389157,12.8797248 9.85223382,8.74195182 13.3839944,7.16951071 L24.3465399,2.28867099 C27.8783005,0.716229873 32.0160735,2.30457212 33.5885146,5.83633269 Z M36.0006859,43.6583461 C35.3749342,43.8796036 34.7015272,44 34,44 C33.2988494,44 32.6257887,43.8797328 32.0003218,43.6587023 L32,56 L23,56 C22.4871642,56 22.0644928,56.3860402 22.0067277,56.8833789 L22,57 L22,59 C22,59.5128358 22.3860402,59.9355072 22.8833789,59.9932723 L23,60 L45,60 C45.5128358,60 45.9355072,59.6139598 45.9932723,59.1166211 L46,59 L46,57 C46,56.4477153 45.5522847,56 45,56 L36,56 L36.0006859,43.6583461 Z M25.7569105,4.95033971 L25.5667498,5.02930736 L14.6042043,9.91014708 C12.6491226,10.7806056 11.7362423,13.0267805 12.4980014,15.0011148 L12.5769691,15.1912755 L14.1184064,18.6547447 L20.9913038,15.4500653 L22.2591585,18.1689886 L15.3394064,21.3957447 L16.3054064,23.5667447 L22.9913038,20.4500653 L24.2591585,23.1689886 L17.5264064,26.3087447 L18.4934064,28.4797447 L24.9913038,25.4500653 L26.2591585,28.1689886 L19.7134064,31.2207447 L23.1521218,38.9434574 C24.0225803,40.8985391 26.2687552,41.8114194 28.2430895,41.0496603 L28.4332502,40.9706926 L28.7159713,40.8448164 L28.7854064,40.9697447 L28.6669311,40.7519796 C28.2407201,39.9276957 28,38.9919595 28,38 C28,34.6862915 30.6862915,32 34,32 C36.5225927,32 38.681587,33.5567497 39.5686849,35.7619512 L39.6463063,35.9655866 C41.4276191,35.0231882 42.230399,32.8867601 41.5019986,30.9988852 L41.4230309,30.8087245 L38.0624064,23.2607447 L31.0086962,26.5499347 L29.7408415,23.8310114 L36.8414064,20.5187447 L35.8744064,18.3477447 L29.0086962,21.5499347 L27.7408415,18.8310114 L34.6544064,15.6067447 L33.6874064,13.4347447 L27.0086962,16.5499347 L25.7408415,13.8310114 L32.4674064,10.6937447 L30.8478782,7.05654262 C29.9774197,5.10146087 27.7312448,4.18858059 25.7569105,4.95033971 Z M34,35 C32.3431458,35 31,36.3431458 31,38 C31,39.6568542 32.3431458,41 34,41 C35.6568542,41 37,39.6568542 37,38 C37,36.3431458 35.6568542,35 34,35 Z" id="Combined-Shape" fill="#000000"></path>
</svg>