<svg xmlns="http://www.w3.org/2000/svg" width="232" height="95" viewBox="0 0 232 95">
    <g fill="none" fill-rule="evenodd">
        <path fill="#EA5853" d="M171.767 6.196c-3.263-6.86-9.27-6.197-9.525-6.165-.417.052-.79.282-1.016.627a1.363 1.363 0 0 0-.162 1.165c.891 2.79.83 6.802.797 8.957-.006.446-.012.83-.01 1.132a4.53 4.53 0 0 0 .265 1.494l8.198 22.547c.207.569-1.398-4.203-.814-4.203.105 0 .377-.891.814-2.672.693-1.353 2.724-4.167 3.352-5.068.683-.98 2.304-1.282 2.711-1.408.748-.233 1.827.394 1.59-.337-.128-.393-3.163-9.687-6.2-16.07z"/>
        <path fill="#63C4DA" d="M194.093 3.068c-7.75 3.248-15.596 17.245-15.926 17.839a1.317 1.317 0 0 0-.135.928c.189.367.905.121 2.15-.738 1.41-.005 2.243.089 3.745 0 .148.15 3.225.673 3.47.414 1.651-4.495 3.764-5.38 8.444-5.637 5.396-.296 6.667-3.957 6.585-5.852a1.35 1.35 0 0 0-.714-1.127c-.423-.228.177-.851-1.355.014-1.531.864-3.35 1.32-3.704 1.078-.023-.03-.09-.192-.085-.546.024-1.46 4.2-2.344 7.074-2.395.48-.009.922-.26 1.166-.665.245-.406.256-.906.031-1.321-.991-1.831-4.513-4.604-10.746-1.992z"/>
        <path fill="#F59A1C" d="M230.96 3.253c-2.897-.706-7.452.266-8.42.488a7.2 7.2 0 0 0-3.325 1.19l-23.622 15.79a1.3 1.3 0 0 0-.522.695c-.208.156.059.256.555.256h.118c.398.2.882.208 1.296 0h11.782c.04.034.078.07.124.1.24.154.512.228.781.228.442 0 .876-.2 1.145-.57l1.254-.464 1.553.162c.918.096 1.781-.469 2.009-1.314l.329-1.222 1.33.104c1 .078 1.88-.597 2.002-1.538l.116-.89 1.259.144c.925.105 1.797-.458 2.027-1.31a1.24 1.24 0 0 0 .029-.136l.196-1.275 1.41.202c.036.005.072.009.109.011.922.062 1.742-.511 1.947-1.364l.306-1.272 1.342.202a1.952 1.952 0 0 0 1.478-.41c.38-.311.606-.742.637-1.213.102-1.561 1.222-3.947 1.645-4.734.19-.354.2-.77.027-1.131a1.367 1.367 0 0 0-.916-.729z"/>
        <path fill="#FFF" d="M178.953 33.095h-2.544v-2.532h2.544v-2.516h2.56v2.516h2.483v2.532h-2.483v2.518h-2.56v-2.518zm22.51 13.743l.025.058h24.776v2.894H202.74l7.907 18.264h-.801v24.052h7.04V95h-9.966V68.054h-13.805V95h-9.967v-2.894h7.041V68.054h-.808l7.973-18.264h-23.619v-2.894h24.801v-4.13h-18.532c-6.068 0-11.005-4.882-11.005-10.882C169 25.882 173.937 21 180.005 21h39.99C226.063 21 231 25.882 231 31.884c0 6-4.937 10.883-11.005 10.883h-18.532v4.07zM180.005 23.35c-4.757 0-8.628 3.827-8.628 8.532s3.87 8.533 8.628 8.533h39.99c4.757 0 8.628-3.828 8.628-8.533s-3.87-8.532-8.628-8.532h-39.99zm13.826 41.81h12.382l-6.165-14.24-6.217 14.24zm23.566-33.34c0-1.42 1.165-2.572 2.602-2.572 1.437 0 2.601 1.152 2.601 2.573 0 1.42-1.164 2.573-2.601 2.573s-2.602-1.152-2.602-2.573zM113.001 7.634l5.282 3.81-5.281 3.377 5.293 3.378L113 22.028l8.34 4.612 10.411-8.385-4.764-3.437 4.764-3.44L121.341 3 113 7.634zm2.463-1.032L121 3.526v7.071l-5.536-3.995zm5.884-3.005l4.865 3.915-4.865 3.109V3.597zm-7.674 4.075l1.576-.876 5.643 4.071-2.244.396-4.975-3.59zm7.682 3.289l4.853-3.101v6.603l-4.853-3.502zm5.2-3.052l4.293 3.454-4.292 3.1V7.909zm-11.091 6.913L121 11.284v7.072l-5.535-3.534zm5.883-3.514l4.864 3.51-4.864 3.514v-7.024zm-7.395 3.334l4.72-3.017 1.742-.308-5.204 3.326-1.258-.001zm4.732 3.379l-4.73-3.02h1.256l5.266 3.363-1.792-.343zm2.671.658l4.853-3.506v6.603l-4.853-3.097zm5.2-3.505l4.293 3.097-4.292 3.458v-6.555zm-12.882 6.814l4.985-3.606 2.195.42-5.612 4.054-1.568-.868zm7.674-2.969l4.865 3.106-4.865 3.919v-7.025zm-5.893 4.03L121 19.043v7.072l-5.545-3.066z"/>
        <path stroke="#FFF" stroke-width=".3" d="M130.849 18.271l-4.293 3.458v-6.555l4.293 3.097zm-4.64-3.808l-4.853-3.502 4.853-3.101v6.603zm0 7.314l-4.853-3.098 4.853-3.506v6.604zm-4.861 4.267v-7.025l4.865 3.106-4.865 3.919zm0-14.736l4.864 3.51-4.864 3.514v-7.024zm0-7.711l4.864 3.915-4.864 3.11V3.596zm5.208 4.312l4.293 3.454-4.293 3.1V7.909zM121 10.597l-5.536-3.995L121 3.526v7.071zm0 7.76l-5.536-3.535L121 11.284v7.072zm0 7.758l-5.545-3.067L121 19.043v7.072zm10.751-14.737L121.34 3l-8.339 4.633 5.282 3.812L113 14.82l5.293 3.379L113 22.028l8.34 4.612 10.411-8.386-4.764-3.436 4.764-3.44z"/>
        <path fill="#FFF" d="M20.136 48.213h9.53L49.804 95H38.997L34.7 84.58H14.834L10.538 95H0l20.136-46.787zm4.631 12.278l-6.242 15.064H31.01l-6.242-15.064zm16.522 2.932l3.179-3.144c1.303 1.315 2.684 2.062 4.352 2.062 1.433 0 2.345-.722 2.345-1.83v-.051c0-1.16-1.068-1.856-2.97-1.856h-2.137l-.73-2.602 4.196-3.737h-6.985V48.22h13.187V51.8l-4.352 3.685c2.606.567 4.717 2.01 4.717 5.076v.052c0 3.659-2.97 6.004-7.036 6.004-3.518 0-5.994-1.263-7.766-3.195zm19.087-3.994H70.58v5.044c2.349-2.987 5.437-5.708 10.605-5.708 4.698 0 8.256 2.058 10.135 5.641 3.155-3.65 6.913-5.64 11.813-5.64 7.585 0 12.149 4.512 12.149 13.073V95h-10.203V75.157c0-4.778-2.148-7.233-5.973-7.233-3.826 0-6.175 2.455-6.175 7.233V95H82.727V75.157c0-4.778-2.148-7.233-5.973-7.233-3.826 0-6.175 2.455-6.175 7.233V95H60.376V59.43zm60.074-3.916v-8.959h10.74v8.96h-10.74zM120.72 95V59.43h10.202V95H120.72zm16.377 0V46.554h10.203V95h-10.203zM41.875 36.921V31h1.247v5.921h-1.247zm12.218-4.347h1.247v.616c.288-.365.657-.698 1.288-.698.944 0 1.494.617 1.494 1.614v2.815h-1.247v-2.425c0-.584-.28-.884-.755-.884-.476 0-.78.3-.78.884v2.425h-1.247v-4.347zm5.318 3.115v-2.06h-.526v-1.055h.526v-1.112h1.247v1.112h1.033v1.054h-1.033v1.858c0 .284.123.422.402.422.23 0 .435-.057.615-.155v.99a1.855 1.855 0 0 1-.985.251c-.762 0-1.28-.3-1.28-1.305zm3.2-3.115h1.247v.876c.254-.6.664-.99 1.403-.958v1.29h-.066c-.829 0-1.337.495-1.337 1.533v1.606H62.61v-4.347zm8.082 0h1.248v.616c.287-.365.656-.698 1.287-.698.944 0 1.494.617 1.494 1.614v2.815h-1.247v-2.425c0-.584-.28-.884-.755-.884-.476 0-.78.3-.78.884v2.425h-1.247v-4.347zm10.348 3.115v-2.06h-.525v-1.055h.525v-1.112h1.247v1.112h1.034v1.054h-1.034v1.858c0 .284.123.422.402.422.23 0 .435-.057.616-.155v.99a1.855 1.855 0 0 1-.985.251c-.763 0-1.28-.3-1.28-1.305zm25.906-3.294H105.2v-1.152h4.758v1.152h-1.747v4.526h-1.264v-4.526zm9.913-1.152h4.332v1.111h-3.077v1.152h2.708v1.112h-2.708v1.192h3.118v1.111h-4.373v-5.678zm5.104 4.85l.747-.883c.517.421 1.058.69 1.715.69.517 0 .828-.204.828-.536v-.017c0-.316-.197-.478-1.156-.722-1.157-.291-1.904-.608-1.904-1.736v-.016c0-1.03.837-1.711 2.01-1.711.837 0 1.55.259 2.134.721l-.657.941c-.509-.348-1.009-.56-1.493-.56-.484 0-.739.22-.739.495v.017c0 .373.247.494 1.24.746 1.165.3 1.82.714 1.82 1.703v.017c0 1.127-.87 1.76-2.108 1.76-.87 0-1.748-.3-2.437-.908zm5.646-4.85h1.361l1.51 2.401 1.51-2.4h1.36v5.677h-1.254v-3.707l-1.616 2.426h-.033l-1.6-2.401v3.682h-1.239v-5.678zm7.123 0h4.331v1.111h-3.076v1.152h2.707v1.112h-2.707v1.192h3.117v1.111h-4.372v-5.678zm11.972 5.678v-5.678h1.263v5.678h-1.263zM44.033 35.672v-.016c0-.949.73-1.387 1.772-1.387.443 0 .763.073 1.075.178v-.073c0-.51-.32-.795-.944-.795-.475 0-.812.09-1.214.236l-.311-.941c.484-.211.96-.349 1.706-.349.681 0 1.173.178 1.485.486.328.325.476.804.476 1.388v2.522h-1.206v-.47c-.304.333-.722.551-1.33.551-.828 0-1.51-.47-1.51-1.33zm2.863-.284v-.219a1.952 1.952 0 0 0-.796-.162c-.533 0-.86.211-.86.6v.016c0 .333.278.528.68.528.583 0 .976-.316.976-.763zm4.744-3.293V31h1.312v1.095H51.64zm.033 4.826v-4.347h1.247v4.347h-1.247zm13.9-1.249v-.016c0-.949.73-1.387 1.773-1.387.443 0 .763.073 1.074.178v-.073c0-.51-.32-.795-.943-.795-.476 0-.812.09-1.214.236l-.312-.941c.484-.211.96-.349 1.706-.349.681 0 1.174.178 1.485.486.328.325.476.804.476 1.388v2.522h-1.206v-.47c-.304.333-.722.551-1.33.551-.828 0-1.509-.47-1.509-1.33zm2.863-.284v-.219a1.952 1.952 0 0 0-.795-.162c-.533 0-.861.211-.861.6v.016c0 .333.278.528.68.528.583 0 .976-.316.976-.763zm7.157-.616v-.016c0-1.242.894-2.264 2.174-2.264 1.469 0 2.141 1.128 2.141 2.36 0 .098-.008.212-.016.325h-3.06c.123.56.517.852 1.075.852.418 0 .721-.13 1.066-.446l.714.624c-.41.504-1.001.812-1.797.812-1.321 0-2.297-.917-2.297-2.247zm3.1-.365c-.073-.552-.401-.925-.926-.925-.517 0-.854.365-.952.925h1.879zm7.813.349v-.017c0-1.452.96-2.247 2.002-2.247.665 0 1.075.3 1.37.65V31h1.247v5.921h-1.247v-.624c-.303.405-.721.705-1.37.705-1.025 0-2.002-.795-2.002-2.246zm3.389 0v-.017c0-.722-.484-1.2-1.067-1.2-.582 0-1.075.47-1.075 1.2v.017c0 .722.493 1.2 1.075 1.2.583 0 1.067-.478 1.067-1.2zm2.134.016v-.016c0-1.242.894-2.264 2.174-2.264 1.469 0 2.141 1.128 2.141 2.36 0 .098-.008.212-.016.325h-3.06c.123.56.517.852 1.075.852.418 0 .722-.13 1.066-.446l.714.624c-.41.504-1.001.812-1.797.812-1.32 0-2.297-.917-2.297-2.247zm3.101-.365c-.073-.552-.402-.925-.927-.925-.517 0-.853.365-.952.925h1.88zm6.704-3.205H103l2.46 5.72h-1.32l-.525-1.274h-2.429l-.525 1.273h-1.288l2.461-5.719zm1.33 3.343l-.764-1.842-.763 1.842h1.526zm7.763-3.302h2.625c.73 0 1.296.203 1.674.576.32.316.492.762.492 1.298v.017c0 .916-.5 1.492-1.23 1.76l1.403 2.027h-1.477l-1.231-1.816h-.993v1.816h-1.263v-5.678zm2.543 2.758c.616 0 .969-.325.969-.803v-.016c0-.536-.378-.812-.993-.812h-1.256v1.631h1.28zm26.76-2.758h2.24c1.805 0 3.052 1.225 3.052 2.823v.016c0 1.598-1.247 2.84-3.052 2.84h-2.24v-5.679zm2.24 4.55c1.034 0 1.731-.689 1.731-1.695v-.016c0-1.006-.697-1.712-1.73-1.712h-.977v3.423h.976zm8.904-4.59h1.165L155 36.92h-1.32l-.526-1.273h-2.429l-.525 1.273h-1.288l2.462-5.719zm1.329 3.342l-.763-1.842-.763 1.842h1.526z"/>
    </g>
</svg>
