<?xml version="1.0" encoding="utf-8"?>
<!-- Generator: Adobe Illustrator 17.0.0, SVG Export Plug-In . SVG Version: 6.00 Build 0)  -->
<!DOCTYPE svg PUBLIC "-//W3C//DTD SVG 1.0//EN" "http://www.w3.org/TR/2001/REC-SVG-20010904/DTD/svg10.dtd">
<svg version="1.0" id="Capa_1" xmlns="http://www.w3.org/2000/svg" xmlns:xlink="http://www.w3.org/1999/xlink" x="0px" y="0px"
	 width="385.889px" height="523.441px" viewBox="0 0 385.889 523.441" enable-background="new 0 0 385.889 523.441"
	 xml:space="preserve">
<g>
	<defs>
		<rect id="SVGID_1_" width="385.889" height="523.441"/>
	</defs>
	<clipPath id="SVGID_2_">
		<use xlink:href="#SVGID_1_"  overflow="visible"/>
	</clipPath>
	<path clip-path="url(#SVGID_2_)" fill="#EA5855" d="M54.693,194.717c-3.084,0-4.467,2.43-5.56-0.642L5.887,72.364
		c-0.916-2.637-1.381-5.332-1.399-8.062c-0.011-1.633,0.019-3.706,0.055-6.114C4.716,46.555,5.039,24.902,0.34,9.841
		c-0.66-2.119-0.349-4.42,0.85-6.288c1.199-1.866,3.163-3.106,5.364-3.386c1.34-0.172,33.032-3.748,50.247,33.278
		c16.017,34.45,32.028,84.623,32.702,86.742c1.255,3.947-0.927,8.164-4.875,9.42c-3.946,1.254-37.739,13.284-27.422,64.674
		C57.379,195.145,55.527,194.717,54.693,194.717"/>
	<path clip-path="url(#SVGID_2_)" fill="#63C4DB" d="M133.667,126.276c-0.794,0-1.602-0.127-2.396-0.395
		c-3.926-1.323-26.912-3.715-27.017-3.523c-1.979,3.639-6.532,4.984-10.172,3.004c-3.639-1.979-4.984-6.533-3.004-10.172
		c1.793-3.297,44.411-80.958,86.507-98.977c33.861-14.495,52.991,0.89,58.375,11.049c1.221,2.305,1.158,5.078-0.168,7.324
		c-1.326,2.246-3.723,3.642-6.331,3.687c-15.618,0.289-38.294,5.188-38.426,13.291c-0.032,1.965,0.332,2.868,0.462,3.029
		c1.923,1.347,11.8-1.183,20.119-5.982c2.273-1.311,5.064-1.337,7.362-0.076c2.297,1.264,3.769,3.637,3.879,6.257
		c0.443,10.511-6.463,30.824-35.771,32.47c-26.24,1.475-37.182,6.819-46.313,33.908C139.718,124.3,136.797,126.276,133.667,126.276"
		/>
	<path clip-path="url(#SVGID_2_)" fill="#F4991B" d="M265.327,127.243c-1.459,0-2.934-0.425-4.229-1.312
		c-3.418-2.339-4.293-7.007-1.953-10.425l-61.662,9.389c-3.381,2.392-8.062,1.593-10.455-1.788
		c-2.393-3.381-1.593-8.061,1.788-10.455L316.685,22.13c5.271-3.78,11.506-6.144,18.001-6.818c5.238-1.276,29.891-6.848,45.577-2.8
		c2.202,0.567,4.027,2.104,4.962,4.176c0.936,2.073,0.881,4.457-0.15,6.485c-2.288,4.511-8.35,18.189-8.903,27.138
		c-0.167,2.704-1.39,5.172-3.445,6.95c-2.04,1.764-4.758,2.648-7.441,2.424c-0.188-0.016-0.375-0.038-0.561-0.068l-7.264-1.16
		l-1.657,7.296c-1.11,4.886-5.548,8.175-10.542,7.818c-0.197-0.014-0.394-0.036-0.59-0.065l-7.631-1.155l-1.059,7.306
		c-0.038,0.262-0.09,0.522-0.155,0.778c-1.248,4.89-5.97,8.118-10.976,7.512l-6.814-0.826l-0.625,5.104
		c-0.659,5.394-5.429,9.266-10.836,8.817l-7.205-0.6l-1.78,7.008c-1.232,4.843-5.905,8.083-10.873,7.533l-8.403-0.928l-6.792,9.924
		C270.07,126.101,267.719,127.243,265.327,127.243"/>
	<path clip-path="url(#SVGID_2_)" d="M324.707,234.608H106.021c-33.185,0-60.182-26.998-60.182-60.182
		c0-33.185,26.997-60.183,60.182-60.183h218.686c33.184,0,60.182,26.998,60.182,60.183
		C384.889,207.61,357.891,234.608,324.707,234.608 M106.021,127.243c-26.016,0-47.182,21.166-47.182,47.183
		c0,26.016,21.166,47.182,47.182,47.182h218.686c26.016,0,47.182-21.166,47.182-47.182c0-26.017-21.166-47.183-47.182-47.183
		H106.021z"/>
	<rect x="207.364" y="228.107" clip-path="url(#SVGID_2_)" width="16" height="42.667"/>
	<polygon clip-path="url(#SVGID_2_)" points="177.717,523.441 123.213,523.441 123.213,507.441 161.717,507.441 161.717,372.774 
		177.717,372.774 	"/>
	<polygon clip-path="url(#SVGID_2_)" points="307.717,523.441 253.213,523.441 253.213,372.774 269.213,372.774 269.213,507.441 
		307.717,507.441 	"/>
	<rect x="71.739" y="257.442" clip-path="url(#SVGID_2_)" width="287.251" height="16"/>
	<path clip-path="url(#SVGID_2_)" d="M273.592,374.441H157.298l58.388-135.254L273.592,374.441z M181.632,358.441h67.706
		l-33.713-78.744L181.632,358.441z"/>
	<path clip-path="url(#SVGID_2_)" d="M54.693,194.717c-3.084,0-4.467,2.43-5.56-0.642L5.887,72.364
		c-0.916-2.637-1.381-5.332-1.399-8.062c-0.011-1.633,0.019-3.706,0.055-6.114C4.716,46.555,5.039,24.902,0.34,9.841
		c-0.66-2.119-0.349-4.42,0.85-6.288c1.199-1.866,3.163-3.106,5.364-3.386c1.34-0.172,33.032-3.748,50.247,33.278
		c16.017,34.45,32.028,84.623,32.702,86.742c1.255,3.947-0.927,8.164-4.875,9.42c-3.946,1.254-8.164-0.928-9.42-4.875
		c-0.162-0.51-16.399-51.39-32.009-84.963c-7.553-16.246-18.412-21.913-25.995-23.835c2.744,15.12,2.497,31.72,2.337,42.477
		c-0.034,2.281-0.064,4.243-0.053,5.79c0.007,1.086,0.192,2.159,0.55,3.189l37.306,104.898c1.389,3.902,3.765,20.605-0.138,21.993
		C56.376,194.577,55.527,194.717,54.693,194.717"/>
	<path clip-path="url(#SVGID_2_)" d="M133.667,126.276c-0.794,0-1.602-0.127-2.396-0.395c-3.926-1.323-6.035-5.578-4.712-9.502
		c11.767-34.908,30.055-42.428,59.686-44.093c5.294-0.298,9.297-1.371,12.321-2.849c-5.169,0.837-10.411,0.586-14.696-1.937
		c-3.659-2.153-7.988-6.709-7.833-16.182c0.258-15.829,17.41-22.726,32.253-25.73c-6.964-1.095-15.399,0.389-24.803,4.415
		c-15.179,6.497-33.635,24.4-53.373,51.775c-15.239,21.137-25.755,40.388-25.86,40.58c-1.979,3.639-6.532,4.984-10.172,3.004
		c-3.639-1.979-4.984-6.533-3.004-10.172c1.793-3.297,44.411-80.958,86.507-98.977c33.861-14.495,52.991,0.89,58.375,11.049
		c1.221,2.305,1.158,5.078-0.168,7.324c-1.326,2.246-3.723,3.642-6.331,3.687c-15.618,0.289-38.294,5.188-38.426,13.291
		c-0.032,1.965,0.332,2.868,0.462,3.029c1.923,1.347,11.8-1.183,20.119-5.982c2.273-1.311,5.064-1.337,7.362-0.076
		c2.297,1.264,3.769,3.637,3.879,6.257c0.443,10.511-6.463,30.824-35.771,32.47c-26.24,1.475-37.182,6.819-46.313,33.908
		C139.718,124.3,136.797,126.276,133.667,126.276"/>
	<path clip-path="url(#SVGID_2_)" d="M265.327,127.243c-1.459,0-2.934-0.425-4.229-1.312c-3.418-2.339-4.293-7.007-1.953-10.425
		l9.333-13.635c1.564-2.285,4.258-3.525,7.012-3.218l8.618,0.951l1.753-6.897c1.216-4.79,5.673-7.967,10.602-7.559l6.636,0.553
		l0.647-5.285c0.675-5.509,5.706-9.444,11.216-8.777l6.905,0.836l0.918-6.338c0.038-0.263,0.09-0.523,0.155-0.78
		c1.358-5.317,6.316-8.893,11.79-8.503c0.197,0.014,0.393,0.035,0.589,0.065l6.873,1.04l1.666-7.331
		c1.104-4.867,5.689-8.22,10.664-7.809c0.187,0.016,0.373,0.039,0.558,0.068l6.809,1.087c1.147-6.239,3.42-12.781,5.492-17.932
		c-10.047-0.074-22.235,2.148-29.285,3.879c-0.578,0.142-1.162,0.241-1.785,0.303c-3.934,0.394-7.71,1.82-10.922,4.123
		l-127.906,90.548c-3.381,2.392-8.062,1.593-10.455-1.788c-2.393-3.381-1.593-8.061,1.788-10.455L316.685,22.13
		c5.271-3.78,11.506-6.144,18.001-6.818c5.238-1.276,29.891-6.848,45.577-2.8c2.202,0.567,4.027,2.104,4.962,4.176
		c0.936,2.073,0.881,4.457-0.15,6.485c-2.288,4.511-8.35,18.189-8.903,27.138c-0.167,2.704-1.39,5.172-3.445,6.95
		c-2.04,1.764-4.758,2.648-7.441,2.424c-0.188-0.016-0.375-0.038-0.561-0.068l-7.264-1.16l-1.657,7.296
		c-1.11,4.886-5.548,8.175-10.542,7.818c-0.197-0.014-0.394-0.036-0.59-0.065l-7.631-1.155l-1.059,7.306
		c-0.038,0.262-0.09,0.522-0.155,0.778c-1.248,4.89-5.97,8.118-10.976,7.512l-6.814-0.826l-0.625,5.104
		c-0.659,5.394-5.429,9.266-10.836,8.817l-7.205-0.6l-1.78,7.008c-1.232,4.843-5.905,8.083-10.873,7.533l-8.403-0.928l-6.792,9.924
		C270.07,126.101,267.719,127.243,265.327,127.243"/>
	<rect x="100.269" y="153.212" clip-path="url(#SVGID_2_)" width="14" height="41.836"/>
	<rect x="86.356" y="167.127" clip-path="url(#SVGID_2_)" width="41.488" height="14"/>
	<path clip-path="url(#SVGID_2_)" d="M310.503,174.086c0-7.857,6.369-14.226,14.226-14.226c7.856,0,14.225,6.369,14.225,14.226
		c0,7.857-6.369,14.226-14.225,14.226C316.872,188.312,310.503,181.944,310.503,174.086"/>
</g>
</svg>
