<svg xmlns="http://www.w3.org/2000/svg" width="20" height="20" viewBox="0 0 20 20">
    <path fill="#000" fill-rule="evenodd" d="M10.625 10.161l4.332 2.5a.625.625 0 0 1-.625 1.083L9.73 11.088a.625.625 0 0 1-.313-.547.623.623 0 0 1-.043-.229v-3.75a.625.625 0 1 1 1.25 0v3.599zM10 20C4.477 20 0 15.523 0 10S4.477 0 10 0s10 4.477 10 10-4.477 10-10 10zm0-.938A9.063 9.063 0 1 0 10 .938a9.063 9.063 0 0 0 0 18.125zm0-15.625a.625.625 0 1 1 0-1.25.625.625 0 0 1 0 1.25zm0 14.376a.625.625 0 1 1 0-1.25.625.625 0 0 1 0 1.25zm-7.188-6.875a.625.625 0 1 1 0-1.25.625.625 0 0 1 0 1.25zm14.376 0a.625.625 0 1 1 0-1.25.625.625 0 0 1 0 1.25z"/>
</svg>
