<?xml version="1.0" encoding="UTF-8"?>
<svg width="70px" height="63px" viewBox="0 0 70 63" version="1.1" xmlns="http://www.w3.org/2000/svg" xmlns:xlink="http://www.w3.org/1999/xlink">
    <!-- Generator: Sketch 51.3 (57544) - http://www.bohemiancoding.com/sketch -->
    <title>RESUMEN-PRENSA-BG</title>
    <desc>Created with Sketch.</desc>
    <defs></defs>
    <g id="&gt;=1280-DESKTOP-1366" stroke="none" stroke-width="1" fill="none" fill-rule="evenodd">
        <g id="Artboard" transform="translate(-138.000000, -152.000000)">
            <g id="RESUMEN-PRENSA-BG" transform="translate(136.000000, 143.000000)">
                <path d="M71.75,31.659615 L71.75,60.9252373 C71.75,67.0003695 66.8251322,71.9252373 60.75,71.9252373 L57.0323919,71.9252373 L15.95,71.9252373 C2,73.0905195 2,60.265555 2,59.1071334 C2,58.3348523 2,42.3316438 2,11.0975079 C2,9.93908628 2.99136948,9 4.21428571,9 L46.2857143,9 C47.5086305,9 48.5,9.93908628 48.5,11.0975079 L48.5,20.6528217 L59.3813221,20.6528217 C60.4895966,19.9165133 61.8197022,19.4875395 63.25,19.4875395 L64.75,19.4875395 C68.6159932,19.4875395 71.75,22.6215463 71.75,26.4875395 L71.75,31.659615 Z" id="Combined-Shape" fill="#FFFFFF"></path>
                <path d="M68.3732141,42.5994371 L68.3732141,33.121341 L68.3284448,33.121341 C68.3310052,33.0598536 68.3322981,32.9980388 68.3322981,32.935922 L68.3322981,28.0629901 C68.3322981,25.6437428 66.3711107,23.6825554 63.9518634,23.6825554 C61.532616,23.6825554 59.5714286,25.6437428 59.5714286,28.0629901 L59.5714286,29.3775712 L59.5714286,32.935922 C59.5714286,32.9980388 59.5727215,33.0598536 59.5752819,33.121341 L59.5714286,33.121341 L59.5714286,48.8526503 L59.5714286,60.9864517 C59.5714286,61.8148788 58.8998557,62.4864517 58.0714286,62.4864517 L57.75,62.4864517 C56.9215729,62.4864517 56.25,61.8148788 56.25,60.9864517 L56.25,29.3775712 L56.25,26.4875395 C56.25,25.5349702 56.4402703,24.6268408 56.7848787,23.7990836 L48.5,23.7990836 L48.5,30.4994561 L48.5532321,30.4994561 C48.5180232,30.8493941 48.5,31.2042435 48.5,31.5631215 L48.5,58.8146897 C48.5,64.3178127 52.9611627,68.7789754 58.4642857,68.7789754 C63.9674088,68.7789754 68.4285714,64.3178127 68.4285714,58.8146897 L68.4285714,42.5655311 C68.4101755,42.5769158 68.3917229,42.5882177 68.3732141,42.5994362 Z M71.75,31.659615 L71.75,60.9252373 C71.75,67.0003695 66.8251322,71.9252373 60.75,71.9252373 L57.0323919,71.9252373 L15.95,71.9252373 C2,73.0905195 2,60.265555 2,59.1071334 C2,58.3348523 2,42.3316438 2,11.0975079 C2,9.93908628 2.99136948,9 4.21428571,9 L46.2857143,9 C47.5086305,9 48.5,9.93908628 48.5,11.0975079 L48.5,20.6528217 L59.3813221,20.6528217 C60.4895966,19.9165133 61.8197022,19.4875395 63.25,19.4875395 L64.75,19.4875395 C68.6159932,19.4875395 71.75,22.6215463 71.75,26.4875395 L71.75,31.659615 Z M45.2548946,28.4414957 L45.1785714,27.8775712 L45.1785714,12.1462619 L5.32142857,12.1462619 L5.32142857,60.7789754 C5.32142857,65.1972534 8.90315057,68.7789754 13.3214286,68.7789754 L48.476697,68.7789754 C46.4412977,66.7826904 45.1785714,64.0014266 45.1785714,60.9252373 L45.1785714,29.6007921 C45.1785714,29.2077502 45.2045538,28.8207767 45.2548946,28.4414957 Z M9.63717117,20.7693499 C9.02571305,20.7693499 8.53002831,19.986778 8.53002831,19.0214267 C8.53002831,18.0560753 9.02571305,17.2735034 9.63717117,17.2735034 L40.4392155,17.2735034 C41.0506736,17.2735034 41.5463584,18.0560753 41.5463584,19.0214267 C41.5463584,19.986778 41.0506736,20.7693499 40.4392155,20.7693499 L9.63717117,20.7693499 Z M9.63717117,28.2271558 C9.02571305,28.2271558 8.53002831,27.4445839 8.53002831,26.4792326 C8.53002831,25.5138812 9.02571305,24.7313093 9.63717117,24.7313093 L40.4392155,24.7313093 C41.0506736,24.7313093 41.5463584,25.5138812 41.5463584,26.4792326 C41.5463584,27.4445839 41.0506736,28.2271558 40.4392155,28.2271558 L9.63717117,28.2271558 Z M9.63717117,37.6659414 C9.02571305,37.6659414 8.53002831,36.8833695 8.53002831,35.9180182 C8.53002831,34.9526668 9.02571305,34.1700949 9.63717117,34.1700949 L22.9187195,34.1700949 C23.5301776,34.1700949 24.0258623,34.9526668 24.0258623,35.9180182 C24.0258623,36.8833695 23.5301776,37.6659414 22.9187195,37.6659414 L9.63717117,37.6659414 Z M9.63717117,44.0749934 C9.02571305,44.0749934 8.53002831,43.2924215 8.53002831,42.3270701 C8.53002831,41.3617188 9.02571305,40.5791469 9.63717117,40.5791469 L22.9187195,40.5791469 C23.5301776,40.5791469 24.0258623,41.3617188 24.0258623,42.3270701 C24.0258623,43.2924215 23.5301776,44.0749934 22.9187195,44.0749934 L9.63717117,44.0749934 Z M9.63717117,50.4840453 C9.02571305,50.4840453 8.53002831,49.7014734 8.53002831,48.7361221 C8.53002831,47.7707707 9.02571305,46.9881988 9.63717117,46.9881988 L22.9187195,46.9881988 C23.5301776,46.9881988 24.0258623,47.7707707 24.0258623,48.7361221 C24.0258623,49.7014734 23.5301776,50.4840453 22.9187195,50.4840453 L9.63717117,50.4840453 Z M9.63717117,56.8930973 C9.02571305,56.8930973 8.53002831,56.1105254 8.53002831,55.145174 C8.53002831,54.1798226 9.02571305,53.3972507 9.63717117,53.3972507 L22.9187195,53.3972507 C23.5301776,53.3972507 24.0258623,54.1798226 24.0258623,55.145174 C24.0258623,56.1105254 23.5301776,56.8930973 22.9187195,56.8930973 L9.63717117,56.8930973 Z M9.63717117,63.3021492 C9.02571305,63.3021492 8.53002831,62.5195773 8.53002831,61.554226 C8.53002831,60.5888746 9.02571305,59.8063027 9.63717117,59.8063027 L22.9187195,59.8063027 C23.5301776,59.8063027 24.0258623,60.5888746 24.0258623,61.554226 C24.0258623,62.5195773 23.5301776,63.3021492 22.9187195,63.3021492 L9.63717117,63.3021492 Z M27.3514569,37.6659414 C26.7399988,37.6659414 26.244314,36.8833695 26.244314,35.9180182 C26.244314,34.9526668 26.7399988,34.1700949 27.3514569,34.1700949 L40.6330052,34.1700949 C41.2444633,34.1700949 41.7401481,34.9526668 41.7401481,35.9180182 C41.7401481,36.8833695 41.2444633,37.6659414 40.6330052,37.6659414 L27.3514569,37.6659414 Z M27.3514569,44.0749934 C26.7399988,44.0749934 26.244314,43.2924215 26.244314,42.3270701 C26.244314,41.3617188 26.7399988,40.5791469 27.3514569,40.5791469 L40.6330052,40.5791469 C41.2444633,40.5791469 41.7401481,41.3617188 41.7401481,42.3270701 C41.7401481,43.2924215 41.2444633,44.0749934 40.6330052,44.0749934 L27.3514569,44.0749934 Z M27.3514569,50.4840453 C26.7399988,50.4840453 26.244314,49.7014734 26.244314,48.7361221 C26.244314,47.7707707 26.7399988,46.9881988 27.3514569,46.9881988 L40.6330052,46.9881988 C41.2444633,46.9881988 41.7401481,47.7707707 41.7401481,48.7361221 C41.7401481,49.7014734 41.2444633,50.4840453 40.6330052,50.4840453 L27.3514569,50.4840453 Z M27.3514569,56.8930973 C26.7399988,56.8930973 26.244314,56.1105254 26.244314,55.145174 C26.244314,54.1798226 26.7399988,53.3972507 27.3514569,53.3972507 L40.6330052,53.3972507 C41.2444633,53.3972507 41.7401481,54.1798226 41.7401481,55.145174 C41.7401481,56.1105254 41.2444633,56.8930973 40.6330052,56.8930973 L27.3514569,56.8930973 Z M27.3514569,63.3021492 C26.7399988,63.3021492 26.244314,62.5195773 26.244314,61.554226 C26.244314,60.5888746 26.7399988,59.8063027 27.3514569,59.8063027 L40.6330052,59.8063027 C41.2444633,59.8063027 41.7401481,60.5888746 41.7401481,61.554226 C41.7401481,62.5195773 41.2444633,63.3021492 40.6330052,63.3021492 L27.3514569,63.3021492 Z" id="Combined-Shape-Copy-2" fill="#000000"></path>
            </g>
        </g>
    </g>
</svg>