<svg xmlns="http://www.w3.org/2000/svg" width="64" height="64" viewBox="0 0 64 64">
    <path fill="#000" fill-rule="evenodd" d="M16.658 39.845c1.506-.495 2.954-1.754 4.343-3.778a1.358 1.358 0 0 1 2.409 1.198c-4.416 6.938-9.45 7.847-15.101 2.726a6.755 6.755 0 1 1 .04-13.25c5.635-5.082 10.656-4.161 15.06 2.76a1.358 1.358 0 0 1-2.408 1.2c-1.278-1.863-2.606-3.078-3.984-3.646a15.377 15.377 0 0 0-1.569 6.79c0 2.128.431 4.155 1.21 6zm-1.995.213a17.283 17.283 0 0 1-1.106-5.047 6.757 6.757 0 0 1-2.257 3.565c1.15.87 2.27 1.364 3.363 1.482zm.396-13.375c-1.208.03-2.452.526-3.732 1.488a6.752 6.752 0 0 1 2.29 3.806c.2-1.87.697-3.65 1.442-5.294zM47.105 40.08c1.322.062 2.687-.44 4.095-1.505a6.741 6.741 0 0 1-2.46-5.214 6.74 6.74 0 0 1 2.433-5.191c-1.531-1.151-3.01-1.635-4.44-1.452a17.308 17.308 0 0 1 1.525 7.125c0 2.198-.408 4.301-1.153 6.237zm-1.884-.485a15.397 15.397 0 0 0 1.107-5.752c0-2.324-.514-4.528-1.434-6.506-1.168.646-2.3 1.766-3.395 3.362a1.358 1.358 0 0 1-2.409-1.198c4.405-6.922 9.426-7.843 15.062-2.761a6.755 6.755 0 1 1 .04 13.25c-5.653 5.12-10.686 4.212-15.102-2.726a1.358 1.358 0 0 1 2.41-1.198c1.196 1.744 2.437 2.92 3.72 3.53zm-7.778 8.232c-.438-1.591-1.72-3.118-3.85-4.579a1.358 1.358 0 0 1 1.198-2.409c6.939 4.416 7.847 9.45 2.726 15.101a6.755 6.755 0 1 1-13.25-.04c-5.081-5.635-4.16-10.656 2.761-15.06a1.358 1.358 0 0 1 1.198 2.408c-2.137 1.467-3.422 2.999-3.854 4.597a15.381 15.381 0 0 0 6.516 1.438 15.38 15.38 0 0 0 6.555-1.456zm.098 2.066c-1.274.53-2.625.91-4.032 1.124a6.775 6.775 0 0 1 2.593 1.932c.789-1.042 1.268-2.06 1.44-3.056zm-13.26.02c.173.98.645 1.983 1.416 3.009a6.774 6.774 0 0 1 2.57-1.905 17.246 17.246 0 0 1-3.985-1.104zm13.25-32.124c.287-1.521-.19-3.101-1.429-4.74a6.741 6.741 0 0 1-5.214 2.46 6.74 6.74 0 0 1-5.191-2.433c-1.22 1.623-1.69 3.189-1.412 4.697a17.319 17.319 0 0 1 6.603-1.3c2.353 0 4.597.469 6.643 1.316zm-.71 1.796a15.393 15.393 0 0 0-5.933-1.181c-2.089 0-4.081.415-5.898 1.166.66 1.092 1.739 2.152 3.236 3.18a1.358 1.358 0 0 1-1.198 2.409c-6.922-4.405-7.842-9.426-2.761-15.062a6.755 6.755 0 1 1 13.25-.04c5.121 5.653 4.213 10.686-2.726 15.102a1.358 1.358 0 0 1-1.198-2.41c1.491-1.022 2.567-2.077 3.228-3.164zM16.79 43.992a17.47 17.47 0 0 0 3.462 3.585c.151-.636.4-1.262.745-1.877a15.532 15.532 0 0 1-2.308-2.392 7.077 7.077 0 0 1-1.899.684zm28.26-.087a17.47 17.47 0 0 1-3.487 3.644 7.28 7.28 0 0 0-.753-1.874 15.531 15.531 0 0 0 2.41-2.537c.6.348 1.21.604 1.83.767zm-27.538-21.14a17.47 17.47 0 0 1 3.208-3.004 8.82 8.82 0 0 0 1.014 1.65 15.53 15.53 0 0 0-2.419 2.214 7.735 7.735 0 0 0-1.803-.86zm26.853.119c-.59.223-1.17.531-1.741.926a15.53 15.53 0 0 0-2.552-2.38c.417-.54.757-1.089 1.018-1.646a17.471 17.471 0 0 1 3.275 3.1zm-13.476-9.27a4.86 4.86 0 1 0 0-9.72 4.86 4.86 0 0 0 0 9.72zm0 38.771a4.86 4.86 0 1 0 0 9.72 4.86 4.86 0 0 0 0-9.72zm19.747-19.023a4.86 4.86 0 1 0 9.72 0 4.86 4.86 0 0 0-9.72 0zm-38.77 0a4.86 4.86 0 1 0-9.72 0 4.86 4.86 0 0 0 9.72 0z"/>
</svg>
