<?xml version="1.0" encoding="UTF-8"?><svg width="54px" height="54px" viewBox="0 0 54 54" xmlns="http://www.w3.org/2000/svg" xmlns:xlink="http://www.w3.org/1999/xlink"><title>Page 1</title><defs><path id="a" d="M0 0h43.321v54H0z"/></defs><g fill="none" fill-rule="evenodd"><g><mask id="b" fill="white"><use xlink:href="#a"/></mask><path d="M34.09 34.118c-2.293-1.625-5-3.964-7.622-6.586-2.623-2.621-4.962-5.328-6.586-7.622-1.57-2.217-1.994-3.35-2.106-3.84.491.112 1.623.536 3.84 2.107.33.232.668.481 1.012.743-.074.076-.147.153-.223.228a1.055 1.055 0 0 0 1.492 1.491c.132-.132.263-.266.392-.402a72.067 72.067 0 0 1 4.95 4.525 73.696 73.696 0 0 1 3.955 4.272c-.19.105-.381.213-.571.323a1.054 1.054 0 1 0 1.055 1.827c.292-.17.585-.332.878-.49.458.582.883 1.147 1.267 1.69 1.571 2.217 1.995 3.35 2.106 3.84-.49-.113-1.622-.535-3.84-2.106zm-3.71 5.386c.565-1.168 1.062-2.674 1.285-4.554.637.486 1.254.933 1.843 1.33.673.454 1.287.832 1.847 1.137l-4.975 2.087zm-3.636 1.525l-5.007 2.099a26.584 26.584 0 0 0 1.9-5.992c.488-2.596.704-6.01-.202-9.696.5.528 1.014 1.056 1.54 1.584a74.688 74.688 0 0 0 4.696 4.324c-.15 4.98-2.435 7.249-2.927 7.68zm-8.127 3.408l-2.273.953c.217-.548.408-1.171.546-1.877.845-4.308-.534-9.636-4.094-15.84l1.142-2.721c.903 1.087 1.932 2.625 2.349 3.595a1.054 1.054 0 0 0 1.938-.833c-.618-1.44-2.187-3.678-3.387-4.91l1.744-4.158c.306.56.684 1.173 1.138 1.846.312.463.654.943 1.022 1.437 3.608 5.474 3.526 11.077 2.821 14.816-.75 3.977-2.356 6.888-2.946 7.692zm-3.762-1.52c-.425 2.425-1.553 3.594-1.874 3.883l-2.78 1.165c.62-2.199.781-5.69-1.606-10.273l3.16-7.537c3.28 6.218 3.526 10.337 3.1 12.763zm-6.49 3.57c-.22 1.372-.71 2.274-.945 2.645l-4.396 1.844L7.488 40.33c.874 2.19 1.177 4.287.877 6.156zm28.113-16.76c2.02-.936 4.03-1.619 6.007-2.037a1.054 1.054 0 1 0-.437-2.063c-2.287.483-4.61 1.293-6.933 2.411a74.519 74.519 0 0 0-4.386-4.768 73.604 73.604 0 0 0-5.058-4.628 23.85 23.85 0 0 0 3.444-5.983c1.361-3.417 2.052-7.32 2.052-11.605a1.055 1.055 0 0 0-2.11 0c0 6.6-1.692 12.062-5.034 16.276-.63-.48-1.242-.923-1.826-1.316-3.126-2.108-4.987-2.603-6.027-1.6a.519.519 0 0 0-.023.021l-.003.003-.002.002c-.266.267-.43.59-.493.976L.082 52.537a1.055 1.055 0 0 0 1.38 1.38h.004l37.118-15.566c.353-.057.651-.201.904-.428l.053-.048c.006-.007.014-.012.02-.02a.519.519 0 0 0 .024-.025c1.004-1.04.51-2.902-1.6-6.028a40.063 40.063 0 0 0-1.507-2.075z" fill="#000000" mask="url(#b)"/></g><path d="M19.078 30.431a1.055 1.055 0 0 0-1.945.816 1.057 1.057 0 0 0 1.334.619 1.055 1.055 0 0 0 .61-1.435M39.385 16.315a1.052 1.052 0 0 0 1.492 0c2.357-2.356 6.175-3.436 8.962-3.66a1.056 1.056 0 0 0-.17-2.103c-3.161.254-7.523 1.51-10.284 4.271a1.055 1.055 0 0 0 0 1.492M53.218 10.754a2.382 2.382 0 0 0-.09-.024 1.055 1.055 0 1 0-.51 2.047l.054.014a1.055 1.055 0 0 0 .547-2.037M7.752 8.82h1.055v1.054a1.055 1.055 0 0 0 2.11 0V8.82h1.054a1.055 1.055 0 0 0 0-2.109h-1.055V5.655a1.055 1.055 0 0 0-2.109 0V6.71H7.752a1.055 1.055 0 0 0 0 2.11M32.432 19.05h1.055v1.055a1.055 1.055 0 0 0 2.109 0V19.05h1.055a1.055 1.055 0 0 0 0-2.11h-1.055v-1.054a1.055 1.055 0 0 0-2.11 0v1.054h-1.054a1.055 1.055 0 0 0 0 2.11M47.092 44.046h-1.055V42.99a1.055 1.055 0 0 0-2.11 0v1.055h-1.054a1.055 1.055 0 0 0 0 2.11h1.055v1.054a1.055 1.055 0 0 0 2.11 0v-1.055h1.054a1.055 1.055 0 0 0 0-2.11M41.13 2.11c.58 0 1.054.473 1.054 1.054 0 .582-.473 1.055-1.054 1.055a1.056 1.056 0 0 1-1.055-1.055c0-.581.473-1.054 1.055-1.054m0 4.218a3.167 3.167 0 0 0 3.164-3.164A3.167 3.167 0 0 0 41.13 0a3.167 3.167 0 0 0-3.165 3.164 3.167 3.167 0 0 0 3.165 3.164M47.725 22.53a1.056 1.056 0 0 1-1.055-1.054c0-.582.473-1.055 1.055-1.055.581 0 1.054.473 1.054 1.055 0 .58-.473 1.054-1.054 1.054m0-4.219a3.167 3.167 0 0 0-3.164 3.165 3.167 3.167 0 0 0 3.164 3.164 3.167 3.167 0 0 0 3.164-3.164 3.167 3.167 0 0 0-3.164-3.165M20.936 5.866c.581 0 1.055.474 1.055 1.055s-.474 1.055-1.055 1.055A1.056 1.056 0 0 1 19.88 6.92c0-.581.474-1.055 1.055-1.055m0 4.219A3.167 3.167 0 0 0 24.1 6.921a3.167 3.167 0 0 0-3.164-3.164 3.167 3.167 0 0 0-3.164 3.164 3.167 3.167 0 0 0 3.164 3.164M47.376 31.014c0-.58-.475-1.055-1.055-1.055-.581 0-1.055.474-1.055 1.055s.474 1.055 1.055 1.055c.58 0 1.055-.475 1.055-1.055M35.352 10.026c.581 0 1.055-.473 1.055-1.055 0-.58-.474-1.054-1.055-1.054-.58 0-1.055.474-1.055 1.054 0 .58.474 1.055 1.055 1.055M49.485 37.87c-.58 0-1.055.474-1.055 1.054 0 .581.474 1.055 1.055 1.055.58 0 1.054-.474 1.054-1.055 0-.58-.474-1.055-1.054-1.055M14.68 3.164c.58 0 1.055-.473 1.055-1.054 0-.581-.474-1.055-1.055-1.055-.58 0-1.054.474-1.054 1.055 0 .58.473 1.054 1.054 1.054" fill="#000000"/></g></svg>