<svg xmlns="http://www.w3.org/2000/svg" width="64" height="64" viewBox="0 0 64 64">
    <path fill="#000" fill-rule="evenodd" d="M46 51V14H20v37h26zm0 3H20v6h26v-6zM17.5 10h31a1.5 1.5 0 0 1 1.5 1.5v51a1.5 1.5 0 0 1-1.5 1.5h-31a1.5 1.5 0 0 1-1.5-1.5v-51a1.5 1.5 0 0 1 1.5-1.5zM33 59a2 2 0 1 1 0-4 2 2 0 0 1 0 4zM4.724 9.142l10.752-8.4a1 1 0 0 1 1.404.172l.213.273a1 1 0 0 1-.172 1.404l-10.752 8.4a1 1 0 0 1-1.404-.172l-.213-.273a1 1 0 0 1 .172-1.404zm5.594 1.203l5.821-4.548a1 1 0 0 1 1.404.172l.213.274a1 1 0 0 1-.172 1.403l-5.82 4.548a1 1 0 0 1-1.405-.172l-.213-.274a1 1 0 0 1 .172-1.403z"/>
</svg>
