<svg xmlns="http://www.w3.org/2000/svg" width="64" height="64" viewBox="0 0 64 64">
    <path fill="#000" fill-rule="nonzero" d="M56.808 20.443l2.905-1.719-.671 3.308c-.07.34-.14.701-.227 1.155l-.242 1.268c-.093.487-.168.869-.241 1.222-.298 1.44-.538 2.316-.856 2.91-.06.11-.099.206-.194.463-.39 1.047-.845 1.744-1.86 2.567l.015.57c0 15.971-12.411 30.053-30.054 30.053A29.866 29.866 0 0 1 9.19 57.487l-5.41-3.474 6.388.72c.752.086 1.493.13 2.226.13 3.02 0 5.929-.715 8.53-2.047a11.548 11.548 0 0 1-6.868-7.257l-.777-2.425.561.111a11.526 11.526 0 0 1-3.37-8.148v-2.675l1.37.761a11.531 11.531 0 0 1-1.288-5.305c0-2.07.543-4.06 1.562-5.801l1.091-1.866 1.366 1.676c4.431 5.435 10.777 8.956 17.78 9.782a11.852 11.852 0 0 1-.018-.635c0-6.37 5.166-11.534 11.537-11.534 2.934 0 5.695 1.1 7.799 3.03a18.718 18.718 0 0 0 5.139-2.087z"/>
</svg>
