<svg xmlns="http://www.w3.org/2000/svg" xmlns:xlink="http://www.w3.org/1999/xlink" width="64" height="64" viewBox="0 0 64 64">
    <defs>
        <path id="a" d="M58.975 28.292c-.236 5.015-3.833 11.881-10.812 20.6C40.958 58 34.866 62.555 29.873 62.555c-3.087 0-5.702-2.772-7.843-8.316-4.164-14.86-5.939-23.567-9.381-23.567-.403 0-1.787.816-4.165 2.427L6 29.97c6.104-5.21 11.937-11.007 15.592-11.33 4.129-.39 6.66 2.359 7.619 8.225 3.395 20.875 4.897 24.027 11.073 14.572 2.212-3.404 3.407-5.992 3.572-7.775.568-5.28-4.235-4.923-7.488-3.565 2.603-8.293 7.583-12.319 14.93-12.089 5.418.138 7.985 3.577 7.677 10.283z"/>
    </defs>
    <use fill="#000" fill-rule="nonzero" xlink:href="#a"/>
</svg>
