<svg xmlns="http://www.w3.org/2000/svg" width="71" height="62" viewBox="0 0 71 62">
    <g fill="#000" fill-rule="evenodd">
        <path d="M12 20.667H0v20.666h12L36 62V0L12 20.667zM59 5l5-3c4.667 8.908 7 18.263 7 28.065 0 9.801-2.333 19.78-7 29.935l-5-3c4-8.426 6-17.404 6-26.935C65 20.533 63 12.178 59 5z"/>
        <path d="M50 13l5-3c3.333 6.45 5 13.225 5 20.323C60 37.42 58.333 44.646 55 52l-5-3c2.667-5.55 4-11.775 4-18.677C54 23.42 52.667 17.646 50 13zM41 21l5-3c2 3.993 3 8.187 3 12.58 0 4.395-1 8.868-3 13.42l-5-3c1.333-2.674 2-6.147 2-10.42 0-4.272-.667-7.466-2-9.58z"/>
    </g>
</svg>
