<?xml version="1.0" encoding="UTF-8" standalone="no"?>
<svg width="126px" height="19px" viewBox="0 0 126 19" version="1.1" xmlns="http://www.w3.org/2000/svg" xmlns:xlink="http://www.w3.org/1999/xlink">
    <!-- Generator: Sketch 47.1 (45422) - http://www.bohemiancoding.com/sketch -->
    <title>Page 1</title>
    <desc>Created with Sketch.</desc>
    <defs></defs>
    <g id="&gt;=1280-DESKTOP-1366" stroke="none" stroke-width="1" fill="none" fill-rule="evenodd">
        <g id="PORTADA-CON-DESTACADO-1366" transform="translate(-781.000000, -2500.000000)" fill="#211F1F">
            <g id="1000-USOS" transform="translate(727.000000, 694.000000)">
                <g id="MENU-DEL-DIA" transform="translate(0.000000, 1301.000000)">
                    <g id="Group-9" transform="translate(40.000000, 447.000000)">
                        <g id="Group-2" transform="translate(14.000000, 17.000000)">
                            <g id="Page-1" transform="translate(0.000000, 41.000000)">
                                <g id="Group" transform="translate(67.349632, 2.000000)">
                                    <path d="M5.35883897,3.56330263 C5.29804428,3.11981579 4.94153948,2.78083553 4.28607826,2.53925658 C4.19045943,2.50461842 4.0414239,2.42705263 3.83897167,2.30774342 C3.69613365,2.21063816 3.57690523,2.16060526 3.48128639,2.16060526 C3.43288673,2.16060526 3.37947004,2.17333553 3.31867535,2.19820395 C3.30893639,2.40218421 3.30244375,2.61652632 3.30244375,2.84567105 C3.30244375,3.15475 3.32605334,3.68290789 3.37327252,4.42274342 C3.40957226,5.10544079 3.42167218,5.63626316 3.40957226,6.01965132 C3.49368143,6.01965132 3.61792689,5.95481579 3.78437449,5.83284211 C3.95200258,5.70583553 4.04762141,5.63626316 4.071231,5.62353289 C4.42891628,5.45655921 4.74557989,5.17767763 5.02004137,4.78155921 C5.29302724,4.38780921 5.40605815,3.97925658 5.35883897,3.56330263 M4.82260618,10.5939605 C4.84621577,10.4619211 4.8586108,10.3372829 4.8586108,10.2176776 C4.8586108,9.85915789 4.74557989,9.54001316 4.51804248,9.26616447 C3.91098092,8.96715132 3.52348853,8.81764474 3.35586045,8.81764474 C3.26142209,8.81764474 3.17229589,8.83511184 3.08907209,8.87241447 C3.09881105,8.99201974 3.10500856,9.12139474 3.10500856,9.26616447 C3.10500856,9.51751316 3.0728405,9.90119737 3.00702877,10.4246184 C2.94239752,10.9427105 2.90757337,11.3337961 2.90757337,11.5981711 C2.90757337,11.9818553 2.95479255,12.3255724 3.05188699,12.6393882 C3.19561036,12.4724145 3.41931122,12.2956711 3.72239932,12.1085658 C4.02784838,11.9244211 4.23885909,11.7598158 4.35808751,11.6153421 C4.57175429,11.3639934 4.72669222,11.0250132 4.82260618,10.5939605 M7.03895636,4.46004605 C6.88490379,5.10544079 6.49268949,5.69073684 5.85936226,6.21652632 C5.2508251,6.64757895 4.64376354,7.07123026 4.0340459,7.48984868 C4.071231,7.66896053 4.19429599,7.80603289 4.40147013,7.89336842 C4.61011988,7.98573684 4.81021114,8.07040789 5.0011537,8.15507895 C5.99098572,8.80017763 6.48501638,9.56488158 6.48501638,10.4494868 C6.48501638,11.1318882 6.25305216,11.7598158 5.78735302,12.3329737 C5.42848726,12.7737961 4.89933734,13.2125461 4.19665694,13.6435987 C3.62530489,13.97725 3.05188699,14.3111974 2.48053493,14.6472171 C2.33651644,14.7321842 2.18246387,14.7718553 2.01601626,14.7718553 C1.62114588,14.7718553 1.34668441,14.6099145 1.19292696,14.2884013 C1.21624143,13.2844868 1.23985102,12.2856053 1.26375573,11.2938289 C1.2885458,10.0954079 1.35288193,9.10896053 1.4608958,8.33419079 C1.20886343,8.16751316 1.08491309,7.975375 1.08491309,7.75866447 C1.08491309,7.649125 1.12947619,7.55201974 1.21889751,7.46231579 C1.30831883,7.37261184 1.42990821,7.27550658 1.58632174,7.16833553 C1.72915975,5.34938816 1.75778638,3.67550658 1.67456258,2.14580263 C1.11560556,2.03626316 0.745820364,1.78698684 0.566977726,1.39086842 C0.554582692,1.3435 0.576716682,1.27126316 0.628952898,1.17415789 C0.682369593,1.08178947 0.709815741,1.00215132 0.709815741,0.942052632 C0.982801616,0.738072368 1.2885458,0.635934211 1.62114588,0.635934211 C1.85960273,0.635934211 2.40852568,0.718236842 3.26791473,0.872480263 C3.70734821,0.942052632 4.16684984,1.10428947 4.64376354,1.35326974 C5.93019103,2.02619737 6.6874686,2.67632895 6.91353042,3.31165789 C7.06876347,3.76521053 7.11096561,4.14623026 7.03895636,4.46004605" id="Fill-1"></path>
                                    <path d="M9.79195251,3.1845625 C9.81674258,3.5333125 9.82795713,3.88975987 9.82795713,4.26100987 C9.82795713,5.07574671 9.74473333,6.29903618 9.57828573,7.93827961 C9.41095277,9.57752303 9.32743384,10.8132467 9.32743384,11.652852 C9.32743384,11.9619309 9.33363136,12.2683454 9.3460264,12.5670625 C9.23830764,12.9010099 9.00604831,13.0629507 8.64836303,13.0502204 C8.13692031,13.0280164 7.85478572,12.806273 7.80874702,12.3876546 C7.76034736,11.9666678 7.73673777,11.5258454 7.73673777,11.0574901 C7.73673777,10.2474901 7.83501269,9.03189803 8.0312674,7.41752303 C8.22870259,5.80314803 8.32786286,4.59495724 8.32786286,3.79502303 C8.32786286,3.48624013 8.31428735,3.17716118 8.29067776,2.87814803 C8.41108666,2.65403618 8.61235841,2.53916776 8.89921492,2.53916776 C9.12527674,2.53916776 9.35104343,2.60666776 9.57828573,2.73604276 C9.62580003,2.69874013 9.66180465,2.6839375 9.68511912,2.6839375 C9.72259934,2.6839375 9.7397163,2.74374013 9.7397163,2.86304934 C9.72732126,3.00545066 9.72732126,3.09012171 9.7397163,3.11232566 C9.75093085,3.14992434 9.76834292,3.17479276 9.79195251,3.1845625" id="Fill-3"></path>
                                    <path d="M16.9457466,3.29182237 C16.503657,3.47359868 15.8543933,3.68290789 14.9961847,3.91945395 C14.1382713,4.15896053 13.487532,4.36797368 13.0466229,4.54738158 C12.9412651,4.85882895 12.8615828,5.55396053 12.8143636,6.62774342 C13.0044208,6.69998026 13.2254656,6.73728289 13.4763174,6.73728289 C13.6551601,6.73728289 13.9346386,6.70738158 14.3171139,6.64757895 C14.6981137,6.58777632 14.9775922,6.557875 15.1576153,6.557875 C15.491691,6.557875 15.7761865,6.62774342 16.0158239,6.77221711 C16.1822715,7.01379605 16.2640197,7.16833553 16.2640197,7.23790789 C16.2640197,7.32257895 16.222998,7.38771053 16.1400693,7.43744737 C16.1176402,7.44988158 16.033236,7.53188816 15.8903979,7.68672368 C15.7947791,7.79626316 15.6755507,7.84333553 15.5327127,7.83090132 C15.2803852,7.89070395 14.8238347,7.92563816 14.1553882,7.93807237 C13.5955459,7.95050658 13.1484393,8.02274342 12.8143636,8.15507895 C12.5883018,9.03938816 12.4752709,9.73925658 12.4752709,10.2526118 C12.4752709,10.6013618 12.5227852,10.8755066 12.6181089,11.0774145 C13.1782464,11.4735329 14.1491907,11.6402105 15.5327127,11.5804079 C15.6283315,11.5804079 15.7289674,11.5357039 15.8369812,11.4433355 C15.9435195,11.3539276 16.033236,11.3115921 16.1037696,11.3115921 C16.4378453,11.2366908 16.6588901,11.4907039 16.7671991,12.0638618 C16.8005476,12.2557039 16.76956,12.4327434 16.6677437,12.5920197 C16.5671078,12.756625 16.4204332,12.8412961 16.2306711,12.8537303 C14.7863545,12.9010987 13.5359317,12.7862303 12.4752709,12.5123816 C12.1414903,12.4274145 11.8372217,12.2429737 11.5627602,11.9569868 C11.2897744,11.6701118 11.1345413,11.3462303 11.0982416,10.9874145 C10.9902277,9.94856579 10.9902277,9.01422368 11.0982416,8.18971711 C10.764461,7.96294079 10.6139499,7.73882895 10.651135,7.52715132 C10.6638251,7.41761184 10.7541318,7.31784211 10.929433,7.23050658 C11.1020781,7.14080263 11.2000579,7.04873026 11.2236675,6.95132895 C11.2472771,6.85422368 11.2944963,6.28876316 11.3665055,5.24725 C10.6983542,5.117875 10.3707711,4.86386184 10.3831661,4.49498026 C10.3955612,4.14623026 10.6042109,3.87208553 11.0088203,3.67017763 C11.3901151,3.51356579 11.77141,3.35665789 12.1538853,3.20448684 C12.5933188,2.97534211 13.1484393,2.77343421 13.8165906,2.59432237 C14.3988621,2.43711842 14.9837897,2.28761184 15.5687173,2.14580263 C15.6283315,2.13336842 15.6988651,2.12803947 15.7823841,2.12803947 C16.1037696,2.12803947 16.481523,2.25030921 16.9097419,2.50461842 C16.9209565,2.55169079 16.9507636,2.64169079 16.9979828,2.77343421 C17.0463824,2.90310526 17.069992,3.00021053 17.069992,3.06001316 C17.069992,3.15475 17.0277899,3.23438816 16.9457466,3.29182237" id="Fill-5"></path>
                                    <path d="M24.919177,1.39089803 C24.7527294,2.99283882 24.5912989,4.60218092 24.4372463,6.21655592 C24.2336136,8.12994408 24.1329777,9.7241875 24.1329777,11.0052072 C24.1329777,11.4238257 24.1441923,11.8371151 24.1678019,12.2430033 C24.1816725,12.4351414 24.1134998,12.6018191 23.9629887,12.7465888 C23.8139531,12.888398 23.6439641,12.9606349 23.4539069,12.9606349 C23.0838266,12.9606349 22.7733605,12.7089901 22.5236891,12.2083651 C21.7613945,10.711227 20.8137646,8.36915461 19.6802092,5.17770724 C19.6577801,5.10547039 19.6267925,5.06816776 19.5907879,5.06816776 C19.5075641,5.06816776 19.4541474,5.15283882 19.4305378,5.3198125 C19.2269051,7.02862829 19.1250887,8.82744408 19.1250887,10.7186283 C19.1250887,11.6278059 19.1498788,12.5547467 19.197098,13.4964901 C19.2106735,13.8452401 19.1091523,14.0844507 18.8940099,14.2141217 C18.8110812,14.2987928 18.7213648,14.3408322 18.626041,14.3408322 C18.5428172,14.3408322 18.4345082,14.3061941 18.3043604,14.2339572 C18.1255177,14.1492862 18.0113064,14.0968849 17.9629067,14.0720164 C17.8088541,14.024648 17.7144158,13.8825428 17.6784111,13.6436283 C17.6660161,13.4514901 17.6536211,13.2546151 17.643587,13.0503388 C17.6075824,12.3800757 17.5889898,11.6828717 17.5889898,10.9528059 C17.5889898,9.6848125 17.6598186,8.10004276 17.8038371,6.19908882 C18.0298989,3.30665461 18.1541444,1.70471382 18.1801149,1.39089803 C18.190149,1.1291875 18.4097182,0.994779605 18.8405932,0.994779605 C19.0418649,0.974944079 19.3411165,1.12178618 19.7348064,1.44329934 C20.1161012,2.17336513 20.5865223,3.3566875 21.1466598,4.99593092 C21.6831877,6.5629375 22.1722013,7.75129276 22.6134055,8.56573355 C22.791953,6.97652303 23.0714316,4.57464803 23.4539069,1.35329934 C23.488731,1.11675329 23.6625566,0.994779605 23.9730227,0.994779605 C24.079561,0.994779605 24.2038065,1.01461513 24.347825,1.05191776 C24.5390626,1.09691776 24.6520936,1.1291875 24.6869177,1.14162171 C24.8061461,1.18662171 24.8843529,1.27129276 24.919177,1.39089803" id="Fill-7"></path>
                                    <path d="M31.9824578,3.29182237 C31.5403683,3.47359868 30.8919899,3.68290789 30.0337814,3.91945395 C29.1746874,4.15896053 28.5263091,4.36797368 28.0845147,4.54738158 C27.9776813,4.85882895 27.900655,5.55396053 27.8522553,6.62774342 C28.043493,6.69998026 28.2630622,6.73728289 28.5139141,6.73728289 C28.6915762,6.73728289 28.9737108,6.70738158 29.3535301,6.64757895 C29.7348249,6.58777632 30.0151888,6.557875 30.1940315,6.557875 C30.5269267,6.557875 30.8152588,6.62774342 31.05224,6.77221711 C31.2210486,7.01379605 31.3030919,7.16833553 31.3030919,7.23790789 C31.3030919,7.32257895 31.2608898,7.38771053 31.177666,7.43744737 C31.1540564,7.44988158 31.0708326,7.53188816 30.9282897,7.68672368 C30.8314904,7.79626316 30.7131473,7.84333553 30.5703093,7.83090132 C30.3194574,7.89070395 29.8599558,7.92563816 29.19328,7.93807237 C28.6331425,7.95050658 28.1851505,8.02274342 27.8522553,8.15507895 C27.6261935,9.03938816 27.5108016,9.73925658 27.5108016,10.2526118 C27.5108016,10.6013618 27.5603818,10.8755066 27.6560006,11.0774145 C28.2146625,11.4735329 29.185902,11.6402105 30.5703093,11.5804079 C30.6647476,11.5804079 30.766564,11.5357039 30.8733974,11.4433355 C30.9814113,11.3539276 31.0708326,11.3115921 31.1413662,11.3115921 C31.475737,11.2366908 31.6964867,11.4907039 31.8033201,12.0638618 C31.8396198,12.2557039 31.8059762,12.4327434 31.7041598,12.5920197 C31.603819,12.756625 31.4571445,12.8412961 31.2670873,12.8537303 C29.8254267,12.9010987 28.5735283,12.7862303 27.5108016,12.5123816 C27.1779064,12.4274145 26.8762939,12.2429737 26.600652,11.9569868 C26.327371,11.6701118 26.1709575,11.3462303 26.1361333,10.9874145 C26.0266438,9.94856579 26.0266438,9.01422368 26.1361333,8.18971711 C25.8035332,7.96294079 25.6530221,7.73882895 25.6890267,7.52715132 C25.7002413,7.41761184 25.793204,7.31784211 25.9658491,7.23050658 C26.1373138,7.14080263 26.2367692,7.04873026 26.2600837,6.95132895 C26.2836932,6.85422368 26.3320929,6.28876316 26.4043973,5.24725 C25.7362459,5.117875 25.4083677,4.86386184 25.4210579,4.49498026 C25.4319773,4.14623026 25.6406271,3.87208553 26.046712,3.67017763 C26.4268264,3.51356579 26.8093017,3.35665789 27.189121,3.20448684 C27.632391,2.97534211 28.1851505,2.77343421 28.8530068,2.59432237 C29.4367539,2.43711842 30.0213863,2.28761184 30.6051334,2.14580263 C30.6647476,2.13336842 30.7367569,2.12803947 30.8199807,2.12803947 C31.1413662,2.12803947 31.5167587,2.25030921 31.9461581,2.50461842 C31.9573726,2.55169079 31.9874749,2.64169079 32.0358745,2.77343421 C32.0827986,2.90310526 32.1078838,3.00021053 32.1078838,3.06001316 C32.1078838,3.15475 32.066567,3.23438816 31.9824578,3.29182237" id="Fill-9"></path>
                                    <path d="M36.2017275,1.41085197 C36.2017275,1.64739803 36.0290824,1.85670724 35.6840873,2.03611513 C35.5884684,2.0831875 35.486357,2.09088487 35.3798187,2.05595066 C35.213076,2.00621382 35.1239498,1.98134539 35.1115547,1.98134539 C35.0395455,1.98134539 34.9687167,2.01864803 34.897888,2.09088487 C34.2533462,2.73627961 33.9319606,3.52614803 33.9319606,4.46019408 C33.9319606,4.80657566 33.9839017,5.12808882 34.0930961,5.42680592 C34.1394299,5.55884539 34.5912584,6.48312171 35.4506475,8.20703618 C36.02318,9.35572039 36.3097414,10.3297336 36.3097414,11.1320362 C36.3097414,11.7874967 36.1494913,12.4225296 35.8266302,13.0329901 C35.7186163,13.234898 35.4506475,13.4963125 35.0221334,13.8228586 C34.6756627,14.0721349 34.3663771,14.1988454 34.0930961,14.1988454 C33.9839017,14.1988454 33.883561,14.1816743 33.7888275,14.1443717 C33.4314373,13.9895362 33.2525947,13.7926612 33.2525947,13.5537467 C33.2525947,13.408977 33.3408355,13.234898 33.5196782,13.0329901 C33.5680778,12.9708191 33.6822892,12.9385493 33.8596563,12.9261151 C34.0384989,12.9136809 34.1577273,12.841148 34.2173415,12.7091086 C34.4684886,12.1836151 34.5912584,11.6450954 34.5912584,11.0947336 C34.5912584,10.3199638 34.2099635,9.19111513 33.4402909,7.7138125 C32.6700281,6.23650987 32.2863723,5.05585197 32.2863723,4.17095066 C32.2863723,3.44118092 32.4306859,2.78838487 32.7160668,2.21552303 C33.0377474,1.55769408 33.4972491,1.08460197 34.0930961,0.800095395 C34.3663771,0.668351974 34.634641,0.603516447 34.897888,0.603516447 C35.3969356,0.603516447 35.7735086,0.738220395 36.02318,1.0144375 C36.1435889,1.14647697 36.2017275,1.27614803 36.2017275,1.41085197" id="Fill-11"></path>
                                    <path d="M46.3395671,1.08445395 C46.2330288,1.517875 46.0302815,1.76715132 45.7322104,1.83938816 C44.9572256,2.03093421 43.6102986,2.282875 41.6917243,2.59432237 C41.4517919,5.57142763 41.334039,8.05264474 41.334039,10.0382697 C41.334039,10.7881711 41.3452536,11.5306711 41.3700437,12.2607368 C41.3824387,12.4898816 41.3700437,12.6615921 41.334039,12.7814934 C41.2732443,12.9706711 41.1554915,13.0630395 40.9763538,13.0503092 C40.629883,13.0381711 40.3453875,12.8910329 40.1184403,12.6121513 C39.8909029,12.3303092 39.7669526,12.0164934 39.7421625,11.6701118 C39.7197334,11.2269211 39.7058627,10.7606382 39.7058627,10.2700789 C39.7058627,9.48021053 39.760755,8.23205263 39.8675884,6.52057237 C39.9744218,4.88369737 40.0228215,3.632875 40.0104264,2.77343421 C39.6887458,2.74856579 39.2416392,2.78083553 38.6694018,2.86313816 C38.0133503,2.96024342 37.5603413,3.00524342 37.3106699,3.00524342 C36.7283984,3.00524342 36.2491238,2.85070395 35.8790435,2.53422368 C35.7373859,2.22307237 35.6641962,2.06113158 35.6641962,2.04869737 C35.6641962,1.96402632 35.7063983,1.87402632 35.7896221,1.77692105 C36.1720975,1.64251316 36.9529846,1.52527632 38.1325787,1.41573684 C39.16963,1.30619737 39.9443196,1.11169079 40.4572379,0.835177632 C40.8745374,0.979651316 41.3514511,1.05218421 41.887979,1.05218421 C42.4253923,1.05218421 42.9371301,0.984684211 43.4252584,0.852644737 C43.5692769,0.840210526 43.9331597,0.757907895 44.5166117,0.603664474 C44.9451257,0.493828947 45.3025159,0.456526316 45.5896675,0.493828947 C45.8033343,0.493828947 45.893641,0.583828947 45.8576363,0.762940789 C46.179317,0.762940789 46.3395671,0.872480263 46.3395671,1.08445395" id="Fill-13"></path>
                                    <path d="M47.7886351,7.97546382 C47.7526305,7.53197697 47.6744237,7.03608882 47.5563758,6.4830625 C47.4374425,6.00760197 47.322936,5.52888487 47.2163977,5.04809539 C46.8587124,6.04224013 46.5494268,7.03608882 46.2861799,8.02786513 C46.4774176,7.99322697 46.9791213,7.97546382 47.7886351,7.97546382 M50.3977898,11.4010888 C50.4709796,11.5929309 50.5058037,11.7599046 50.5058037,11.9020099 C50.5058037,12.1409243 50.4048727,12.3502336 50.2027156,12.5299375 C49.9990829,12.7090493 49.8624424,12.7937204 49.7916136,12.7812862 C49.2069812,12.6741151 48.8369009,12.201023 48.6825532,11.3637862 C48.5152202,10.456977 48.3189655,9.69730592 48.0929037,9.08418092 C47.6868188,9.12148355 47.2807338,9.15878618 46.8758294,9.19372039 C46.4116058,9.25589145 46.0491986,9.39829276 45.7856566,9.62210855 C45.6543283,9.99602303 45.4816831,10.653852 45.2665408,11.5979638 C45.0655641,12.4725033 44.8681289,13.1327007 44.6780717,13.5886217 C44.5812724,13.8053322 44.3788202,13.8627664 44.0698297,13.7680296 C43.6749593,13.6359901 43.4674901,13.4565822 43.4435853,13.2298059 C43.4064002,12.7738849 43.5394993,12.1634243 43.8363899,11.4010888 C44.19378,10.5265493 44.3912152,9.90395066 44.4272199,9.53270066 C44.4396149,9.42789803 44.3614081,9.30829276 44.19378,9.17388487 C44.0273324,9.04421382 43.9429282,8.94237171 43.9429282,8.87220724 C43.9429282,8.81003618 43.9703743,8.74756908 44.026152,8.68302961 C44.0795687,8.61819408 44.2038141,8.56342434 44.4000688,8.52108882 C44.597504,8.47875329 44.7055179,8.41628618 44.730308,8.33427961 C44.9451552,7.73388487 45.2854284,6.62279934 45.7499471,4.99599013 C46.1433419,3.58589145 46.4960101,2.50470724 46.8052957,1.74947697 C46.8758294,1.58250329 47.0248649,1.50049671 47.2524023,1.50049671 C47.4185548,1.50049671 47.5675903,1.55289803 47.6992138,1.65977303 C48.032109,1.94901645 48.2469563,2.37740461 48.3425751,2.95293092 C48.4157648,3.44141776 48.4792156,3.93197697 48.5400103,4.42283224 C49.1361524,7.24539803 49.755609,9.57000329 50.3977898,11.4010888" id="Fill-15"></path>
                                    <path d="M54.5475883,4.33321711 C54.5835929,4.118875 54.595988,3.92703289 54.5835929,3.76005921 C54.5475883,3.50841447 54.4431159,3.28163816 54.2695854,3.07765789 C54.0981208,2.87575 53.8198227,2.77331579 53.4385279,2.77331579 C53.1531469,2.77331579 52.9731238,2.86301974 52.9022951,3.04272368 C52.8426809,3.33907237 52.8128737,3.68308553 52.8128737,4.06410526 C52.8128737,4.22101316 52.8302858,4.61979605 52.8662904,5.26489474 C52.8910805,5.75575 52.8910805,6.15660526 52.8662904,6.46834868 C53.8558273,5.72821711 54.4174405,5.01591447 54.5475883,4.33321711 M58.3201055,12.387625 C58.3561102,12.4349934 58.3735222,12.4900592 58.3735222,12.5495658 C58.3735222,12.8237105 58.0878462,13.0330197 57.5167893,13.1748289 C56.8846425,12.6842697 56.0960822,11.9343684 55.154945,10.9153553 C54.1066792,9.78176974 53.325497,8.99190132 52.8128737,8.54575 C52.7756886,8.85986184 52.7122379,9.67223026 52.616619,10.9875921 C52.5558243,11.9817368 52.448991,12.7689408 52.2937579,13.3545329 C52.2713288,13.3545329 52.1957781,13.3868026 52.070057,13.4466053 C51.9464018,13.5040395 51.8404538,13.523875 51.75723,13.4963421 C51.2333922,13.3817697 50.9713258,13.0155526 50.9713258,12.4053882 C50.9713258,12.2256842 50.9937549,11.9841053 51.043335,11.6877566 C51.0905542,11.3387105 51.1203613,11.1243684 51.1315759,11.0423618 C51.1799755,10.3472303 51.2094875,9.52509211 51.2207021,8.56588158 L51.2207021,6.61015789 C51.2207021,4.98571711 51.311599,3.61558553 51.4904416,2.5045 C51.6096701,1.762 52.3061529,1.42331579 53.5804805,1.48045395 C54.2259077,1.50532237 54.7863403,1.82683553 55.2629589,2.44973026 C55.7038679,3.02525658 55.9246176,3.64548684 55.9246176,4.31545395 C55.9246176,4.87617763 55.7159679,5.43926974 55.2989635,6.00236184 C54.9412782,6.50298684 54.4991887,6.89910526 53.9753509,7.18598026 C53.759028,7.30528947 53.6536702,7.43732895 53.6536702,7.57943421 C53.6536702,7.73367763 53.7788011,7.91811842 54.0284725,8.135125 C54.2200053,8.29203289 54.4097673,8.44864474 54.6013001,8.60348026 C54.6134,8.61591447 55.2691564,9.21364474 56.5679789,10.3969671 C57.3887073,11.1368026 57.9736348,11.8023289 58.3201055,12.387625" id="Fill-17"></path>
                                </g>
                                <path d="M5.83942752,8.72584131 C5.73833909,7.57764742 5.45363523,6.89163322 4.98645818,6.67088608 C4.91306912,6.63970361 4.84824688,6.62395801 4.79056365,6.62395801 C4.61494392,6.62395801 4.3964901,6.78264897 4.13320328,7.0969435 C3.84250265,7.460636 3.61519646,7.67119481 3.45671036,7.73602964 C3.35333744,7.78017907 3.20684489,7.73602964 3.01837493,7.59061439 C2.82961941,7.45013893 2.70454389,7.38005557 2.64571842,7.38005557 C2.60259878,7.38005557 2.56661815,7.39549244 2.53749098,7.42698364 C2.02690873,7.89966039 1.77104648,8.63229392 1.77104648,9.62735412 C1.77104648,10.3028713 1.91753904,10.8799012 2.20966747,11.352578 C2.61687681,11.9996913 2.9606917,12.3217042 3.23682874,12.3217042 C3.87848328,12.3217042 4.49729297,11.8879284 5.09697011,11.0225378 C5.66523559,10.2016054 5.91281658,9.43778944 5.83942752,8.72584131 M7.58991364,10.1963569 C6.72866305,12.2905218 5.51160402,13.5378203 3.93730875,13.9302254 C3.74741099,13.9768447 3.55779879,14 3.36904327,14 C2.53749098,14 1.69794298,13.5143563 0.854111581,12.5347329 C0.28470386,11.8721828 0,11.0148194 0,9.95739426 C0,8.79345477 0.320684489,7.53843779 0.962339026,6.19790059 C1.23990387,5.62889781 1.57400971,5.14047546 1.9692255,4.73263353 C2.42098227,4.24421118 2.85132201,4 3.25967359,4 C3.49154875,4 3.71143036,4.09354739 3.91446391,4.28311207 C4.11892526,4.47298549 4.66548813,4.7249151 5.55472366,5.04167953 C6.25520367,5.29113924 6.75150789,5.71719667 7.04220852,6.31738191 C7.55307633,7.37233714 7.80865302,8.27909849 7.80865302,9.03519605 C7.80865302,9.46125347 7.73554952,9.8459401 7.58991364,10.1963569" id="Fill-19"></path>
                                <path d="M14.5373259,4.72014715 C14.4653576,4.16027574 14.0363482,3.72359394 13.2494576,3.41994498 C13.1352044,3.37460644 12.9571039,3.27438438 12.714596,3.12375302 C12.5423762,3.00056342 12.3987196,2.94031087 12.2855866,2.94031087 C12.2267798,2.94031087 12.1629325,2.95552315 12.0912442,2.98803566 C12.0780827,3.24664435 12.0710819,3.52016704 12.0710819,3.808902 C12.0710819,4.20561429 12.098245,4.87555099 12.1559317,5.81692241 C12.1996167,6.68789978 12.2147384,7.36589003 12.1996167,7.85268286 C12.2998682,7.85268286 12.4494055,7.77244556 12.6496285,7.61435721 C12.8501316,7.45119809 12.9643848,7.36589003 12.992388,7.34829152 C13.4213974,7.13740762 13.7997209,6.77827859 14.1284788,6.27627349 C14.4583568,5.77426839 14.5950125,5.25734929 14.5373259,4.72014715 M13.8926917,13.6786862 C13.9223751,13.5077718 13.9363767,13.3499818 13.9363767,13.1993504 C13.9363767,12.7399993 13.7997209,12.33583 13.5297699,11.9868425 C12.8005659,11.6053425 12.3351523,11.4171279 12.1346492,11.4171279 C12.0192759,11.4171279 11.9145439,11.4371127 11.8128922,11.4848374 C11.8271738,11.637855 11.8355748,11.8036987 11.8355748,11.9868425 C11.8355748,12.30809 11.7952501,12.7978656 11.7151609,13.4603453 C11.6387121,14.1231233 11.5986675,14.6224439 11.5986675,14.9565174 C11.5986675,15.4433102 11.6563541,15.8850628 11.7706073,16.2841613 C11.941427,16.0682067 12.211378,15.844795 12.5742998,15.6064694 C12.9383418,15.3729162 13.1928911,15.1620323 13.3354275,14.9788884 C13.5933372,14.6603255 13.7784385,14.2260299 13.8926917,13.6786862 M16.553278,5.8646472 C16.3670566,6.68789978 15.8946422,7.43359958 15.137155,8.10383455 C14.4087911,8.65087993 13.6795871,9.19076658 12.9501031,9.72528419 C12.992388,9.95376661 13.139965,10.126769 13.3894737,10.2398171 C13.6395425,10.3528651 13.87869,10.4632287 14.1083165,10.571206 C15.2948131,11.3944586 15.8876414,12.3683426 15.8876414,13.4952441 C15.8876414,14.3638352 15.6095694,15.1620323 15.0523052,15.8925198 C14.6232958,16.457462 13.9870625,17.0122626 13.1436054,17.5616942 C12.4564063,17.9885328 11.7706073,18.4129851 11.0836882,18.8419116 C10.9117484,18.9475027 10.7255269,19 10.5253039,19 C10.0551298,19 9.72525177,18.7941869 9.54015045,18.3852451 C9.56843371,17.1050277 9.59559684,15.8322673 9.62612035,14.5699466 C9.65468364,13.0463328 9.73225257,11.7884864 9.86078737,10.7996885 C9.5614329,10.58612 9.41049552,10.3427236 9.41049552,10.0665164 C9.41049552,9.93109734 9.46482178,9.80552149 9.57207413,9.6924734 C9.67820635,9.57733735 9.82662344,9.44907699 10.0114447,9.31604415 C10.1836646,6.99930401 10.2189486,4.86839227 10.1200972,2.9176416 C9.44717975,2.77983628 9.00276857,2.45829052 8.7885439,1.95896994 C8.77426226,1.8987174 8.80030526,1.80565406 8.86387258,1.68544725 C8.92884006,1.56255593 8.9604837,1.46203559 8.9604837,1.38657078 C9.28924156,1.12796209 9.65468364,1 10.0551298,1 C10.3416027,1 10.9977183,1.09544957 12.0276769,1.29380572 C12.5566578,1.38657078 13.105801,1.59238392 13.6795871,1.91124515 C15.224245,2.764624 16.1304293,3.59563186 16.4026207,4.40367216 C16.5885621,4.98352832 16.6381278,5.46793491 16.553278,5.8646472" id="Fill-21"></path>
                                <path d="M21.4234626,9.83806309 C21.1499498,14.603796 19.7151852,17.6213612 17.1175986,18.8822146 C16.9417465,18.9591108 16.7238156,19 16.46883,19 C16.0351662,19 15.6599104,18.8974717 15.3377243,18.6945512 C14.8739144,18.3839151 14.6412244,18.0729737 14.6412244,17.7598964 C14.6412244,17.4184407 14.8421982,17.2463397 15.2425757,17.2463397 C15.3217092,17.2463397 15.4510861,17.2695306 15.6256821,17.3156073 C15.8027903,17.3644302 15.9321671,17.3848749 16.0116146,17.3848749 C16.2518411,17.3848749 16.4619216,17.2872289 16.6377737,17.0846136 C18.4967814,15.0892795 19.4272274,12.1849226 19.4272274,8.3666606 C19.4272274,7.40118622 19.3716456,6.24804851 19.2592259,4.90755263 C19.2102385,4.40955826 19.1141479,3.65463296 18.970012,2.6403356 C18.9382958,2.46823461 18.9869691,2.31139079 19.1141479,2.17285559 C19.2419547,2.0315741 19.4112123,1.97756368 19.6184665,2.00838318 C19.8103337,1.99556715 20.0916971,2.01631692 20.4616145,2.08039708 C20.846291,2.29613361 21.0880876,2.68641229 21.1829221,3.24604567 C21.2319095,3.74709148 21.2702201,4.24508585 21.3031924,4.74338537 C21.4790444,6.36369794 21.5186112,8.0609067 21.4234626,9.83806309" id="Fill-23"></path>
                                <path d="M31.06965,3.51890435 C30.4901365,3.75525979 29.6374237,4.02764875 28.5099785,4.33607122 C27.3810003,4.64968497 26.529514,4.92207393 25.9490806,5.15842937 C25.8083416,5.56182154 25.7065434,6.46632389 25.6458325,7.86949346 C25.8948087,7.96202021 26.1836456,8.01087921 26.5129564,8.01087921 C26.7487479,8.01087921 27.1163864,7.97209738 27.6170984,7.89270149 C28.1178104,7.81544319 28.4866753,7.77452377 28.721547,7.77452377 C29.159095,7.77452377 29.534399,7.86949346 29.8477656,8.0569899 C30.0669996,8.37060364 30.1779964,8.57367389 30.1779964,8.66620063 C30.1779964,8.77674413 30.122498,8.86163665 30.0130343,8.92301578 C29.9805325,8.93828422 29.8722953,9.04913309 29.6837234,9.24945501 C29.5589287,9.39084076 29.402552,9.45252526 29.2142868,9.43695145 C28.8852825,9.5166527 28.2827724,9.56032044 27.40553,9.5783372 C26.6699464,9.59360564 26.0830739,9.68643775 25.6458325,9.85836038 C25.3477969,11.0099061 25.1981659,11.9244856 25.1981659,12.5926325 C25.1981659,13.045189 25.2601033,13.4073564 25.3864312,13.6696682 C26.1204817,14.1860468 27.3978644,14.4043855 29.2142868,14.3274326 C29.3393881,14.3274326 29.4724616,14.2657481 29.612894,14.1500133 C29.753633,14.0342785 29.8722953,13.972594 29.9652014,13.972594 C30.403976,13.8800673 30.6928129,14.2089495 30.8332453,14.9567977 C30.8813848,15.206284 30.8372314,15.4374481 30.705691,15.6454043 C30.5729241,15.8564141 30.3806728,15.9694006 30.1292436,15.9871119 C28.2352462,16.0466589 26.5914514,15.9000818 25.1981659,15.5428004 C24.7593914,15.4322569 24.3595577,15.1907101 24.0008112,14.8157173 C23.6396118,14.440419 23.4369353,14.0214531 23.3894091,13.5539334 C23.2486701,12.1968746 23.2486701,10.9815068 23.3894091,9.90477643 C22.951861,9.60917945 22.7559302,9.32121668 22.80223,9.03875055 C22.8178677,8.8973648 22.9402094,8.77155286 23.1674155,8.65337514 C23.3946216,8.53489205 23.5234024,8.41427138 23.5555976,8.29090239 C23.5853399,8.16509045 23.6485038,7.42487651 23.7441695,6.07056594 C22.8641674,5.89833794 22.435818,5.56945576 22.4502292,5.08636233 C22.4655602,4.63411116 22.7402926,4.27682968 23.2731997,4.01238031 C23.7739117,3.80656175 24.2743171,3.60379687 24.775029,3.40072663 C25.354236,3.10757259 26.0830739,2.84312322 26.9590899,2.60646241 C27.7280952,2.40369754 28.4946475,2.20826151 29.2608932,2.02320803 C29.3393881,2.00793959 29.4322943,2 29.543291,2 C29.9652014,2 30.4594744,2.16459378 31.0218171,2.49103301 C31.0386813,2.55241214 31.0773155,2.66814691 31.1404794,2.84312322 C31.2011904,3.01535122 31.2346121,3.13841484 31.2346121,3.21567314 C31.2346121,3.34148508 31.1781938,3.44164605 31.06965,3.51890435" id="Fill-25"></path>
                                <path d="M41.97151,0.770441992 C41.8343355,1.3174758 41.5755272,1.63854142 41.1920963,1.72886908 C40.1995989,1.97481071 38.4758036,2.29080844 36.0198136,2.68699805 C35.7143838,6.4777784 35.5622666,9.63626517 35.5622666,12.1624584 C35.5622666,13.1232703 35.5772094,14.0641089 35.6073937,14.9948116 C35.6238307,15.2833831 35.6073937,15.5039853 35.5622666,15.6572144 C35.4854609,15.900473 35.3318495,16.015842 35.1044208,15.9982535 C34.6606212,15.9833479 34.2948228,15.7976247 34.0055312,15.4389971 C33.7150442,15.0824563 33.5551568,14.6835837 33.5234781,14.2396963 C33.4935926,13.6801418 33.4786499,13.0857083 33.4786499,12.4608675 C33.4786499,11.4550408 33.5476854,9.86700313 33.6836644,7.68959989 C33.8220342,5.60461108 33.8835983,4.01150553 33.8671613,2.91803413 C33.4547415,2.88524191 32.8839285,2.92280391 32.1508373,3.02833522 C31.3119515,3.15383998 30.7336671,3.21137542 30.4115015,3.21137542 C29.6631687,3.21137542 29.0535046,3.01313156 28.5804172,2.61455706 C28.3969202,2.21538634 28.3063672,2.0096897 28.3063672,1.99478415 C28.3063672,1.88686794 28.3604599,1.76911407 28.4650592,1.6486772 C28.9551813,1.47815767 29.9539546,1.32492858 31.4640686,1.18690315 C32.7918812,1.04887773 33.7840796,0.805619098 34.4418594,0.45176126 C34.9750166,0.634801456 35.5846807,0.72542722 36.270254,0.72542722 C36.9567238,0.72542722 37.6142047,0.642552343 38.2394093,0.474417701 C38.4229062,0.459214036 38.8882234,0.351595941 39.6350619,0.15335208 C40.1846562,0.0180096551 40.642502,-0.0296881158 41.0094959,0.0180096551 C41.2835459,0.0180096551 41.3980073,0.130695639 41.3516848,0.359048717 C41.7655989,0.359048717 41.97151,0.494689254 41.97151,0.770441992" id="Fill-27"></path>
                                <path d="M41.9221667,3.79942159 C41.953864,4.22838658 41.97151,4.67212349 41.97151,5.13034267 C41.97151,6.13454363 41.8532169,7.65054819 41.6195716,9.678646 C41.3872335,11.704137 41.2705742,13.2349135 41.2705742,14.2706858 C41.2705742,14.6535972 41.2784169,15.0310052 41.2963896,15.4017515 C41.145092,15.813917 40.8206029,16.0160896 40.3190008,15.9990005 C39.6023798,15.9697463 39.2092676,15.6966106 39.1432587,15.1775659 C39.0759427,14.6608383 39.0432651,14.1145669 39.0432651,13.5370137 C39.0432651,12.530206 39.1814916,11.0289733 39.4553303,9.03273653 C39.7304762,7.03881689 39.8677224,5.54453574 39.8677224,4.55278954 C39.8677224,4.16987819 39.8513836,3.79218045 39.8187059,3.42172385 C39.9860155,3.14134701 40.2693308,3 40.6693053,3 C40.9859518,3 41.3035787,3.08052145 41.6195716,3.24359187 C41.6868876,3.1998554 41.7365576,3.17784234 41.7708692,3.17784234 C41.8205392,3.17784234 41.8450474,3.25343981 41.8450474,3.39710398 C41.8287086,3.57523597 41.8287086,3.68008764 41.8450474,3.711659 C41.8626934,3.75307831 41.8878552,3.78493931 41.9221667,3.79942159" id="Fill-30"></path>
                                <path d="M53.5692687,2.20056961 C52.9721058,3.33995014 52.1174259,5.46956482 51.012449,8.59185868 C50.6896501,9.51271531 50.306082,11.0326025 49.8617447,13.1573271 C49.4300426,15.1836396 49.0160899,16.7191138 48.6162766,17.7661947 C48.4781921,17.9205368 48.3163414,18 48.1328304,18 C47.9150239,18 47.6403591,17.8841671 47.3022175,17.6476111 C46.7035504,16.1998521 46.0047044,13.8101482 45.2059803,10.4873624 C44.4529835,7.31891879 43.7008892,4.90873776 42.9475916,3.25498561 C43.1476487,2.86408762 43.3161178,2.66848581 43.4542023,2.66848581 C43.5769441,2.5914676 43.7008892,2.55051347 43.823631,2.55051347 C44.0694154,2.55051347 44.4996133,2.78706941 45.1148265,3.25498561 C45.6668637,4.5334268 46.1957364,6.10221442 46.7035504,7.95920908 C47.1024612,9.56681144 47.5085921,11.1637168 47.9249515,12.7557322 C48.4920306,10.8550327 49.0606139,8.94180254 49.6300997,7.02307105 C50.306082,4.86778364 50.9971062,3.01078897 51.703774,1.45208707 C51.9327115,1.04590769 52.3328257,0.914487725 52.9023115,1.05354839 C52.9627798,1.06882978 53.0388918,1.12537092 53.1327531,1.2283675 C53.223907,1.32891906 53.3400303,1.38515457 53.4781148,1.39279527 C53.6161993,1.40074159 53.6844895,1.51382389 53.6844895,1.73234778 C53.6844895,1.88668983 53.6465839,2.04622756 53.5692687,2.20056961" id="Fill-32"></path>
                                <path d="M59.5244833,8.72584131 C59.4233653,7.57764742 59.1382925,6.89163322 58.6724069,6.67088608 C58.5989964,6.63970361 58.5338695,6.62395801 58.4750269,6.62395801 C58.2996414,6.62395801 58.0819806,6.78264897 57.8189023,7.0969435 C57.5269741,7.460636 57.3010296,7.67119481 57.1410689,7.73602964 C57.0388083,7.78017907 56.8911303,7.73602964 56.7034621,7.59061439 C56.5135088,7.45013893 56.3883966,7.38005557 56.3309822,7.38005557 C56.2875643,7.38005557 56.2504305,7.39549244 56.2215805,7.42698364 C55.7117057,7.89966039 55.4560543,8.63229392 55.4560543,9.62735412 C55.4560543,10.3028713 55.6014471,10.8799012 55.8933754,11.352578 C56.3021321,11.9996913 56.6434768,12.3217042 56.9225511,12.3217042 C57.5629652,12.3217042 58.1830986,11.8879284 58.781523,11.0225378 C59.3502404,10.2016054 59.5976082,9.43778944 59.5244833,8.72584131 M61.2754817,10.1963569 C60.414836,12.2905218 59.1962782,13.5378203 57.6218079,13.9302254 C57.4318546,13.9768447 57.2421869,14 57.0533761,14 C56.2215805,14 55.3826437,13.5143563 54.5377085,12.5347329 C53.9692767,11.8721828 53.6844895,11.0148194 53.6844895,9.95739426 C53.6844895,8.79345477 54.0041253,7.53843779 54.6459676,6.19790059 C54.9236136,5.62889781 55.2586742,5.14047546 55.6517205,4.73263353 C56.1061803,4.24421118 56.5352177,4 56.9439744,4 C57.17706,4 57.3958634,4.09354739 57.6003846,4.28311207 C57.8046201,4.47298549 58.351343,4.7249151 59.2408387,5.04167953 C59.9400955,5.29113924 60.436545,5.71719667 60.7287589,6.31738191 C61.2394905,7.37233714 61.4931425,8.27909849 61.4931425,9.03519605 C61.4931425,9.46125347 61.4211602,9.8459401 61.2754817,10.1963569" id="Fill-34"></path>
                            </g>
                        </g>
                    </g>
                </g>
            </g>
        </g>
    </g>
</svg>