<?xml version="1.0" encoding="UTF-8" standalone="no"?>
<svg width="29px" height="35px" viewBox="0 0 29 35" version="1.1" xmlns="http://www.w3.org/2000/svg" xmlns:xlink="http://www.w3.org/1999/xlink">
    <!-- Generator: Sketch 47.1 (45422) - http://www.bohemiancoding.com/sketch -->
    <title>Page 1</title>
    <desc>Created with Sketch.</desc>
    <defs>
        <polygon id="path-1" points="0 0.0519884492 0 26.6092764 14.4965221 26.6092764 28.9930441 26.6092764 28.9930441 0.0519884492 8.39195632e-21 0.0519884492"></polygon>
        <polygon id="path-3" points="0.059160366 0.0426258373 2.87620653 0.0426258373 2.87620653 7.96871131 0.059160366 7.96871131 0.059160366 0.0426258373"></polygon>
    </defs>
    <g id="&gt;=1280-DESKTOP-1366" stroke="none" stroke-width="1" fill="none" fill-rule="evenodd">
        <g id="PORTADA-CON-DESTACADO-1366" transform="translate(-830.000000, -2459.000000)">
            <g id="1000-USOS" transform="translate(727.000000, 694.000000)">
                <g id="MENU-DEL-DIA" transform="translate(0.000000, 1301.000000)">
                    <g id="Group-9" transform="translate(40.000000, 447.000000)">
                        <g id="Group-2" transform="translate(14.000000, 17.000000)">
                            <g id="Page-1" transform="translate(49.000000, 0.000000)">
                                <g id="Group-3" transform="translate(0.000000, 7.979221)">
                                    <mask id="mask-2" fill="white">
                                        <use xlink:href="#path-1"></use>
                                    </mask>
                                    <g id="Clip-2"></g>
                                    <path d="M28.9930441,8.86993621 C28.9930441,8.26441551 28.9566135,7.66698404 28.8888093,7.08030271 C28.5756918,5.14293451 27.9243786,3.36139024 26.7171117,2.15843807 C23.6891402,-0.859160318 21.3217701,0.0329955028 18.3666598,0.783483535 C17.3202861,1.09704725 16.2133324,1.28959197 15.0656135,1.34249121 C14.8775779,1.35058043 14.6869623,1.35675379 14.4928377,1.35675379 C14.4815886,1.35675379 14.4702363,1.35590229 14.4594,1.35590229 C14.4493893,1.35590229 14.4403075,1.35675379 14.4311224,1.35675379 C12.8775068,1.35675379 11.3897345,1.09885668 10.0153822,0.63032054 C7.31962064,-0.0700356156 5.05545338,-0.654056015 2.23285552,2.15843807 C1.16109395,3.22696017 0.529802135,4.75156527 0.185827046,6.43635822 C0.0642540925,7.22899535 -4.12811388e-05,8.04047184 -4.12811388e-05,8.86993621 C-4.12811388e-05,19.5709099 14.4919089,26.6092764 14.4919089,26.6092764 C14.4919089,26.6092764 28.9930441,19.7670735 28.9930441,8.86993621" id="Fill-1" fill="#E4522D" mask="url(#mask-2)"></path>
                                </g>
                                <path d="M19.3333333,4.18524997 C19.3333333,4.18524997 19.2660949,5.84080199 17.5914446,7.027979 C15.8111494,8.28962797 14.5,7.93257814 14.5,7.93257814 C14.5,7.93257814 14.5503744,6.38288346 15.829863,5.05124617 C17.4411917,3.37535379 19.3333333,4.18524997 19.3333333,4.18524997" id="Fill-4" fill="#006E33"></path>
                                <g id="Group-8" transform="translate(10.633333, 0.000000)">
                                    <mask id="mask-4" fill="white">
                                        <use xlink:href="#path-3"></use>
                                    </mask>
                                    <g id="Clip-7"></g>
                                    <path d="M2.73762417,7.96871131 C2.73762417,7.96871131 3.1955825,5.35793126 2.44649639,3.13403844 C1.69708806,0.910250608 0.629001944,0.0426153383 0.629001944,0.0426153383 C0.629001944,0.0426153383 -0.314625833,1.66922149 0.2267075,4.61659866 C0.767960278,7.56408082 2.73762417,7.96871131 2.73762417,7.96871131" id="Fill-6" fill="#006E33" mask="url(#mask-4)"></path>
                                </g>
                            </g>
                        </g>
                    </g>
                </g>
            </g>
        </g>
    </g>
</svg>